<?xml version="1.0" standalone="no"?>
<!DOCTYPE svg PUBLIC "-//W3C//DTD SVG 20010904//EN"
 "http://www.w3.org/TR/2001/REC-SVG-20010904/DTD/svg10.dtd">
<svg version="1.0" xmlns="http://www.w3.org/2000/svg"
 width="700.000000pt" height="700.000000pt" viewBox="0 0 700.000000 700.000000"
 preserveAspectRatio="xMidYMid meet">
<metadata>
Created by potrace 1.14, written by Peter Selinger 2001-2017
</metadata>
<g transform="translate(0.000000,700.000000) scale(0.100000,-0.100000)"
fill="#000000" stroke="none">
<path d="M2061 5874 c-166 -45 -300 -188 -331 -353 -6 -31 -10 -266 -10 -565
l-1 -511 -20 25 c-12 14 -34 41 -51 60 -16 19 -44 54 -61 77 -18 23 -35 43
-39 43 -4 0 -9 -93 -10 -207 l-3 -208 -535 -1 c-294 -1 -540 -2 -545 -3 -7 -1
-10 -247 -9 -728 1 -401 2 -731 3 -734 0 -3 23 -5 51 -4 27 1 50 -3 50 -8 0
-6 5 -6 13 0 15 11 47 11 66 -1 10 -7 12 -6 6 4 -5 8 -3 11 6 8 8 -3 13 -12
11 -19 -2 -11 1 -11 10 1 15 17 40 20 50 5 5 -6 11 -5 17 4 7 11 9 11 14 0 4
-11 7 -11 14 -2 6 9 12 7 21 -8 12 -19 11 -20 -10 -14 -17 5 -19 4 -8 -4 8 -5
12 -13 8 -16 -3 -3 -13 1 -22 10 -9 9 -16 12 -16 6 0 -5 7 -14 16 -19 10 -6
13 -12 6 -16 -6 -3 -21 8 -34 25 -23 28 -25 29 -38 12 -11 -14 -11 -16 -1 -6
11 10 18 7 35 -14 25 -32 30 -57 11 -49 -8 3 -17 1 -19 -3 -3 -5 5 -8 17 -7
12 1 21 7 20 13 -1 6 7 19 18 29 20 18 21 18 35 -1 17 -23 18 -36 2 -33 -7 2
-14 -8 -15 -22 -2 -24 -2 -24 5 -2 4 13 10 23 15 23 24 -2 26 1 12 23 -14 21
-14 24 2 37 15 12 16 12 11 -3 -4 -9 0 -24 7 -35 18 -23 18 -30 2 -36 -7 -2
-6 -3 3 -3 20 2 21 44 1 56 -14 8 -14 9 -1 10 9 0 21 -5 28 -12 8 -8 15 -8 26
1 12 10 14 7 12 -23 -2 -19 1 -40 5 -48 7 -10 9 -10 10 2 1 8 1 20 0 25 -2 17
36 15 51 -2 11 -14 10 -15 -12 -8 -14 4 -22 4 -18 0 12 -12 67 -15 73 -4 5 7
12 6 21 -2 8 -6 17 -9 21 -5 3 3 17 -1 30 -9 13 -9 23 -11 23 -5 0 5 -5 10
-12 10 -15 0 -1 13 17 16 7 1 16 -4 19 -12 3 -8 0 -14 -6 -14 -6 0 -9 -3 -5
-6 13 -13 27 7 18 25 -8 15 -6 18 19 18 19 0 26 -4 23 -14 -3 -7 -10 -10 -16
-6 -6 3 -7 1 -3 -5 11 -18 46 -35 46 -22 0 5 -7 10 -15 10 -9 0 -12 6 -9 15 4
8 13 15 21 15 8 0 12 -4 8 -9 -3 -6 4 -15 15 -21 11 -6 20 -7 20 -3 0 4 6 -1
13 -12 14 -18 37 -14 37 8 0 7 -4 6 -10 -3 -8 -13 -12 -12 -25 7 -9 12 -21 20
-28 17 -7 -2 -13 4 -14 15 -2 18 1 19 23 9 13 -6 24 -15 24 -20 0 -5 6 -8 13
-7 25 3 38 -1 32 -11 -3 -6 1 -7 10 -4 11 5 14 2 9 -12 -5 -16 -4 -16 5 -4 8
11 7 18 -4 26 -8 6 -12 14 -8 18 4 4 -1 4 -12 0 -18 -6 -18 -5 2 15 25 24 35
27 27 8 -3 -8 5 -25 16 -38 12 -13 19 -19 16 -12 -4 6 -2 14 4 18 5 3 10 0 10
-7 0 -10 2 -10 9 1 5 8 7 19 5 25 -2 6 7 12 22 12 l26 2 -21 -20 c-21 -19 -20
-38 2 -38 9 0 9 2 0 8 -9 6 -7 12 8 25 23 20 16 41 -11 32 -14 -4 -18 -1 -16
12 2 10 11 19 22 21 16 3 17 1 4 -7 -13 -9 -13 -11 1 -11 29 0 40 -24 23 -49
-9 -12 -14 -25 -11 -28 3 -2 13 9 22 26 17 34 24 37 45 19 12 -11 12 -10 0 5
-12 16 -12 20 1 28 11 7 11 9 0 9 -11 0 -11 3 0 18 11 14 11 15 -1 5 -22 -20
-35 -15 -17 5 14 15 15 19 2 19 -8 0 -12 -5 -8 -10 3 -5 -5 -4 -18 3 -20 9
-22 9 -9 -2 21 -18 22 -35 4 -42 -9 -3 -14 -1 -13 7 3 20 -12 47 -23 41 -6 -4
-5 -10 3 -15 12 -7 -5 -7 -50 0 -3 1 4 8 15 17 18 15 18 15 -3 4 -15 -7 -20
-16 -17 -28 5 -15 4 -15 -8 -2 -21 24 -35 21 -32 -6 1 -16 -2 -24 -9 -21 -7 2
-11 12 -9 22 3 12 -1 16 -12 12 -11 -4 -13 -1 -10 11 5 15 4 15 -9 -1 -9 -10
-18 -14 -21 -8 -3 5 -1 12 4 14 6 3 5 4 -2 3 -7 -2 -12 -12 -10 -22 2 -15 0
-14 -11 5 -8 14 -17 19 -21 13 -3 -6 -1 -13 4 -15 6 -3 5 -4 -2 -2 -7 1 -12 8
-10 14 1 6 -2 11 -8 11 -5 0 -10 -4 -10 -10 0 -5 -5 -10 -11 -10 -5 0 -8 4 -4
9 3 5 0 13 -6 17 -8 5 -9 3 -4 -6 6 -9 4 -11 -6 -6 -8 4 -4 -1 8 -12 19 -17
20 -21 7 -26 -20 -8 -24 -8 -23 2 4 23 -3 34 -17 28 -8 -3 -13 -2 -10 2 3 4
-6 8 -19 8 -14 0 -21 -4 -18 -10 3 -6 0 -5 -8 2 -7 6 -17 12 -23 12 -5 0 -1
-7 10 -15 13 -11 14 -14 4 -13 -8 2 -21 10 -28 18 -12 13 -13 12 -8 -5 6 -20
6 -20 -9 -1 -8 11 -15 15 -15 9 0 -12 -25 -12 -36 0 -4 4 -13 2 -21 -4 -8 -7
-18 -8 -26 -3 -22 16 -52 10 -52 -10 0 -30 -22 -30 -40 1 -9 16 -14 20 -11 8
6 -18 5 -18 -7 -3 -12 15 -14 15 -26 -4 -7 -11 -15 -17 -18 -14 -3 3 0 13 8
23 8 9 9 14 2 10 -6 -4 -14 -3 -17 2 -3 5 3 11 14 14 11 3 23 1 26 -5 4 -6 10
-5 15 3 7 11 9 11 9 1 0 -7 5 -10 12 -6 7 5 9 2 4 -7 -4 -8 0 -5 8 5 9 11 16
14 16 8 0 -9 5 -10 19 -2 14 7 22 7 26 0 5 -8 12 -7 23 2 9 7 13 8 9 2 -4 -7
2 -12 18 -12 14 0 22 5 18 11 -4 6 -1 7 8 1 20 -12 38 -14 45 -3 3 5 13 5 25
-1 14 -8 19 -7 19 2 0 8 3 9 8 3 11 -15 32 -17 32 -3 0 10 3 9 9 -1 6 -9 14
-10 22 -5 19 12 31 12 52 2 11 -6 17 -5 17 2 0 6 5 8 12 4 18 -11 48 -12 54
-2 3 5 12 4 20 -3 11 -9 17 -9 28 0 10 8 16 9 21 1 4 -7 12 -7 25 0 13 7 21 7
25 0 5 -8 11 -8 19 -1 9 7 16 7 24 -1 8 -8 15 -8 24 0 9 7 17 7 28 -1 13 -10
16 -47 18 -206 1 -107 5 -197 8 -200 3 -3 8 -1 12 5 10 16 84 104 105 126 9
10 17 22 17 28 0 5 9 14 20 20 17 9 20 8 20 -13 0 -12 -6 -29 -12 -36 -9 -10
-9 -12 -1 -7 8 4 11 -2 9 -21 -1 -16 -8 -27 -15 -25 -7 1 -10 -2 -6 -8 3 -6
10 -8 14 -5 5 2 9 -196 10 -442 1 -245 6 -469 12 -497 16 -83 63 -172 124
-231 30 -30 55 -59 55 -65 0 -6 4 -9 9 -5 6 3 24 -3 41 -14 21 -13 27 -21 18
-24 -7 -4 0 -3 16 0 18 4 27 2 23 -4 -3 -5 4 -9 16 -9 16 1 21 -4 19 -19 -2
-17 -1 -18 10 -5 16 19 72 15 64 -5 -3 -9 0 -12 9 -8 8 3 13 8 11 12 -2 3 11
7 30 7 26 0 34 -4 34 -18 0 -10 -4 -18 -10 -18 -5 0 -10 7 -10 15 0 8 -4 15
-10 15 -6 0 -5 -9 2 -24 10 -23 12 -24 34 -9 23 14 35 31 14 18 -6 -3 -7 1 -4
9 3 9 10 16 16 16 5 0 6 -5 3 -10 -3 -6 -2 -10 4 -10 5 0 13 5 16 10 3 6 12
10 18 10 7 0 6 -4 -3 -10 -13 -8 -13 -10 2 -10 9 0 18 3 21 8 2 4 2 2 1 -5 -2
-7 2 -15 8 -19 7 -4 8 -3 4 4 -4 7 -2 12 4 12 6 0 9 4 6 8 -3 5 1 9 9 9 8 0
15 -4 15 -9 0 -4 5 -8 11 -8 5 0 8 4 5 8 -3 5 1 9 9 9 8 0 15 -5 15 -10 0 -5
5 -5 13 1 17 15 53 8 49 -9 -7 -27 -39 -38 -39 -14 0 9 6 14 13 11 8 -3 16 -1
18 3 3 5 -5 8 -17 7 -12 -1 -21 -7 -20 -13 1 -6 -4 -14 -12 -17 -9 -3 -12 0
-8 10 3 7 0 14 -7 14 -6 0 -8 -5 -5 -10 3 -5 2 -10 -4 -10 -5 0 -13 5 -16 10
-11 18 -26 10 -20 -10 5 -15 3 -18 -9 -14 -9 3 -16 1 -16 -6 0 -6 4 -9 9 -5 5
3 12 1 16 -5 10 -16 25 -1 18 18 -6 15 -5 15 10 4 9 -8 22 -10 28 -6 7 4 18
-1 26 -11 12 -17 13 -17 13 -2 0 9 5 17 10 17 6 0 10 -7 10 -16 0 -12 5 -11
20 7 23 28 27 18 5 -14 -13 -21 -13 -22 11 -22 20 0 22 2 10 11 -12 8 -13 13
-4 22 9 9 8 16 -6 30 -12 12 -16 13 -14 3 2 -7 -3 -16 -10 -18 -10 -4 -10 1
-2 19 10 20 18 24 58 23 26 0 53 -4 60 -8 6 -5 12 -4 12 0 0 11 75 11 86 1 4
-4 13 -3 21 3 9 9 13 8 13 0 0 -6 5 -11 11 -11 5 0 8 4 5 8 -3 5 1 9 9 9 23 0
18 -13 -11 -25 -14 -7 -23 -8 -19 -2 13 21 -4 9 -18 -14 -14 -21 -14 -26 -1
-42 14 -18 15 -18 5 2 -10 21 -6 34 10 34 5 0 6 -8 3 -18 -4 -13 -3 -14 4 -4
10 15 21 15 40 0 8 -7 16 -7 25 1 8 6 17 8 21 4 4 -4 4 0 1 8 -4 10 0 16 10
16 9 0 14 -6 11 -12 -2 -7 0 -18 6 -26 8 -11 9 -11 5 3 -3 9 1 22 9 29 13 11
15 10 14 -2 -5 -35 1 -38 26 -12 23 26 25 26 19 6 -4 -14 -2 -23 5 -23 6 0 8
5 5 10 -3 6 1 10 9 10 8 0 20 -8 25 -18 6 -9 11 -12 11 -7 0 6 -5 16 -12 23
-9 9 -9 12 0 12 6 0 16 -8 21 -17 7 -11 11 -13 11 -5 0 9 7 11 23 7 17 -5 19
-4 7 4 -10 7 -11 11 -2 11 6 0 12 7 12 15 0 8 5 15 11 15 6 0 8 -8 5 -17 -9
-30 8 -47 33 -34 12 7 27 9 33 5 7 -5 8 -3 3 6 -5 8 -3 11 6 8 8 -3 13 -11 12
-17 -2 -6 2 -11 7 -11 13 0 13 17 -1 26 -6 3 -9 14 -6 23 2 10 -1 18 -8 18 -8
0 -11 -7 -7 -15 4 -11 2 -13 -9 -6 -21 13 -39 14 -39 2 0 -6 7 -8 15 -5 8 4
17 2 20 -3 6 -10 5 -11 -33 -15 -17 -2 -21 2 -17 16 8 23 -15 36 -30 16 -10
-14 -12 -14 -23 1 -10 14 -11 14 -2 -5 7 -16 6 -22 -4 -26 -15 -6 -26 1 -26
15 0 5 6 6 13 2 6 -4 8 -3 4 1 -11 13 -38 15 -31 3 4 -7 2 -8 -5 -4 -6 4 -9
11 -6 15 2 5 -6 8 -18 7 -12 -1 -21 -7 -20 -13 1 -6 -5 -17 -14 -24 -14 -12
-15 -11 -9 9 7 22 -7 31 -19 12 -3 -5 -11 -10 -16 -10 -6 0 -7 4 -4 10 3 5 1
10 -4 10 -6 0 -11 -5 -11 -11 0 -8 -5 -7 -16 2 -13 10 -17 10 -24 0 -5 -9 -10
-10 -14 -2 -4 6 -2 11 4 11 6 0 9 4 6 8 -3 5 1 9 9 9 8 0 15 -4 15 -9 0 -4 5
-8 11 -8 5 0 8 4 5 8 -3 5 1 9 9 9 8 0 15 -4 15 -9 0 -4 5 -8 11 -8 5 0 8 4 5
8 -3 5 1 9 9 9 8 0 15 -5 15 -10 0 -5 5 -5 13 1 14 12 35 11 55 -1 6 -5 12 -4
12 0 0 11 91 11 108 0 6 -5 12 -4 12 0 0 5 14 9 30 9 25 1 30 -2 25 -15 -3
-11 3 -25 17 -37 12 -10 18 -14 15 -8 -4 7 0 15 9 18 11 4 15 2 11 -8 -4 -10
-1 -13 10 -9 8 3 19 0 25 -8 8 -11 9 -10 4 4 -4 12 -2 17 6 14 7 -2 12 -13 10
-23 -2 -14 -1 -16 6 -5 6 8 4 23 -5 42 -14 29 -27 40 -17 16 3 -8 -3 -13 -16
-13 -21 0 -35 22 -20 31 6 4 10 1 10 -5 0 -7 5 -8 13 -3 17 11 80 11 95 0 7
-6 12 -6 12 0 0 5 7 10 15 10 8 0 11 -5 8 -10 -4 -7 1 -7 13 -2 32 13 109 12
110 -2 1 -7 3 -16 4 -20 1 -5 2 -20 2 -35 1 -15 4 -25 8 -23 5 3 6 14 3 25 -3
12 0 20 6 20 7 0 10 -4 7 -9 -3 -5 1 -14 8 -20 11 -9 16 -9 22 0 4 7 3 9 -4 5
-6 -3 -13 -2 -16 3 -11 17 23 20 34 3 11 -16 11 -15 6 1 -4 12 -2 17 6 14 7
-2 12 -13 10 -23 -2 -14 -1 -16 6 -5 6 8 4 23 -5 42 -16 32 -26 39 -16 12 6
-15 4 -16 -9 -6 -8 7 -19 9 -23 5 -5 -4 -5 -1 0 7 6 10 4 12 -4 7 -9 -6 -9
-11 0 -22 6 -8 8 -14 3 -14 -15 0 -29 14 -31 30 -2 12 10 15 65 15 37 0 73 -4
80 -8 6 -5 12 -4 12 1 0 5 7 9 15 9 8 0 12 -4 9 -9 -3 -4 0 -8 7 -8 8 0 8 -4
-1 -15 -17 -20 -31 -19 -24 2 5 14 4 15 -4 4 -8 -11 -10 -11 -15 0 -4 11 -6
11 -6 0 -1 -11 -5 -10 -15 5 -11 14 -17 16 -26 7 -18 -17 -4 -31 25 -27 21 2
25 -1 20 -17 -4 -11 -2 -19 5 -19 6 0 9 3 6 8 -2 4 7 12 20 19 22 10 24 10 19
-15 -3 -15 -2 -20 1 -12 8 17 24 30 38 30 6 0 5 -5 -2 -12 -7 -7 -12 -16 -12
-22 0 -5 7 -1 16 10 11 13 17 15 20 7 7 -15 24 -17 24 -4 0 5 -9 13 -20 16
-11 4 -18 11 -14 16 3 5 10 7 15 4 14 -9 51 -17 76 -17 15 0 20 -5 16 -17 -4
-13 -3 -14 5 -1 6 8 8 18 6 22 -3 4 -1 8 4 8 14 0 23 -28 11 -34 -5 -2 -4 -3
3 -2 7 2 12 11 10 21 -2 11 1 14 8 10 7 -4 9 -18 6 -34 -5 -21 -4 -23 4 -9 6
10 10 25 8 34 -2 9 3 19 10 21 7 3 12 1 11 -4 -3 -19 2 -34 10 -28 6 3 14 -3
20 -12 8 -14 11 -15 12 -3 1 8 0 22 -1 29 -1 12 1 13 14 2 8 -7 21 -9 27 -5 7
4 18 -1 26 -11 12 -17 13 -17 13 -2 0 9 5 17 10 17 6 0 10 -7 10 -16 0 -12 5
-11 20 7 23 28 27 18 5 -14 -13 -21 -13 -22 11 -22 20 0 22 2 10 11 -12 8 -13
13 -4 22 9 9 8 16 -6 30 -12 12 -16 13 -14 3 2 -7 -3 -16 -10 -18 -10 -4 -10
1 -2 19 10 20 18 24 58 23 26 0 53 -4 60 -8 6 -5 12 -4 12 0 0 11 75 11 86 1
4 -4 13 -3 21 3 9 9 13 8 13 0 0 -6 5 -11 11 -11 5 0 8 4 5 8 -3 5 1 9 9 9 23
0 18 -13 -11 -25 -14 -7 -23 -8 -19 -2 13 21 -4 9 -18 -14 -14 -21 -14 -26 -1
-42 14 -18 15 -18 5 2 -10 21 -6 34 10 34 5 0 6 -8 3 -17 -4 -14 -3 -15 4 -5
10 15 21 15 40 0 8 -7 16 -7 25 1 8 6 17 8 21 4 4 -4 4 0 1 8 -4 10 0 16 10
16 9 0 14 -6 11 -12 -2 -7 0 -18 6 -26 8 -11 9 -11 5 3 -3 9 2 22 10 30 14 11
16 11 11 -3 -10 -27 6 -41 21 -18 8 15 9 19 1 14 -9 -5 -10 -1 -5 14 6 21 -8
30 -20 11 -3 -5 -11 -10 -16 -10 -6 0 -7 4 -4 10 3 5 1 10 -4 10 -6 0 -11 -5
-11 -11 0 -8 -5 -7 -16 2 -13 10 -17 10 -24 0 -5 -9 -10 -10 -14 -2 -4 6 -2
11 4 11 6 0 9 4 6 8 -3 5 1 9 9 9 8 0 15 -4 15 -9 0 -4 5 -8 11 -8 5 0 8 4 5
8 -3 5 1 9 9 9 8 0 15 -4 15 -9 0 -4 5 -8 11 -8 5 0 8 4 5 8 -3 5 1 9 9 9 8 0
15 -4 15 -9 0 -4 5 -8 11 -8 5 0 7 5 4 10 -8 13 15 9 31 -5 7 -5 10 -14 7 -19
-3 -4 -9 -3 -13 4 -13 20 -32 2 -20 -20 7 -13 6 -19 -5 -24 -8 -3 -15 -10 -15
-16 0 -5 9 -2 19 7 11 9 17 23 13 31 -4 10 -1 13 7 8 8 -5 10 -18 7 -35 -5
-21 -4 -23 4 -9 6 10 10 25 8 34 -2 9 3 19 10 21 7 3 12 1 11 -4 -3 -19 2 -34
10 -28 6 3 14 -3 20 -12 8 -14 11 -15 12 -3 1 8 0 22 -1 29 -1 12 1 13 14 2 8
-7 21 -9 27 -5 7 4 18 -1 26 -11 12 -17 13 -17 13 -2 0 9 5 17 10 17 6 0 10
-7 10 -16 0 -12 5 -11 20 7 23 28 27 18 5 -14 -13 -21 -13 -22 11 -22 20 0 22
2 10 11 -12 8 -13 13 -4 22 9 9 8 16 -6 30 -12 12 -16 13 -14 3 2 -7 -3 -16
-10 -18 -10 -4 -10 1 -2 19 10 20 18 23 71 24 32 0 59 -4 59 -8 0 -5 -5 -6
-12 -2 -7 4 -8 3 -4 -4 5 -8 2 -10 -8 -6 -20 8 -20 0 0 -31 20 -30 40 -32 49
-5 5 16 10 17 30 8 14 -6 23 -14 20 -17 -2 -4 5 -7 15 -7 10 0 17 3 14 7 -2 4
3 10 12 13 9 3 12 11 8 18 -5 10 -4 10 6 1 11 -10 11 -15 0 -28 -7 -8 -10 -18
-6 -22 3 -3 6 -1 6 6 0 7 4 10 9 7 5 -4 8 5 6 19 -1 14 2 28 6 31 10 6 10 3
13 -38 0 -14 4 -30 8 -33 4 -4 5 5 2 20 -4 24 -3 26 10 16 11 -9 16 -9 22 0 4
8 3 9 -4 5 -7 -4 -12 -3 -12 3 0 18 20 23 26 7 3 -9 11 -16 16 -16 6 0 5 6 -2
15 -17 20 10 31 42 15 22 -11 22 -10 4 4 -11 9 -24 16 -29 16 -4 0 -5 5 -2 10
4 7 12 7 25 0 26 -14 31 -13 28 6 -2 10 3 19 11 22 8 2 11 0 8 -5 -3 -5 -1
-15 5 -23 8 -13 9 -13 5 0 -2 8 2 21 9 28 13 12 18 8 15 -10 0 -4 6 -5 15 -1
15 5 15 7 1 15 -22 12 -12 33 16 35 21 2 21 1 3 -13 -11 -8 -15 -14 -9 -14 17
0 36 27 23 35 -5 3 -10 11 -10 17 0 6 7 5 18 -3 9 -7 14 -10 10 -5 -4 5 3 17
15 26 17 14 25 16 37 7 13 -10 13 -10 1 6 -12 16 -9 22 12 18 5 -1 6 3 2 9 -5
8 -11 8 -20 0 -8 -7 -15 -7 -19 -1 -3 5 0 11 6 14 10 3 10 8 -1 21 -13 16 -13
18 0 16 26 -4 39 0 36 11 -1 6 3 13 10 16 8 3 11 -3 8 -17 -2 -11 0 -18 5 -15
5 3 7 14 5 25 -2 11 4 24 13 30 9 5 12 10 6 10 -5 0 -15 -5 -21 -11 -8 -8 -17
-8 -33 1 l-22 12 21 19 c22 21 28 35 11 24 -6 -3 -10 -1 -10 4 0 6 7 12 15 12
8 1 21 2 28 3 6 1 16 -3 20 -9 6 -6 7 -5 5 3 -2 8 -7 13 -12 12 -5 -1 -13 4
-17 12 -7 10 -9 10 -9 1 0 -18 -25 -16 -40 2 -15 18 1 20 19 3 11 -10 13 -10
7 0 -4 6 -2 12 4 12 7 0 9 7 6 16 -4 9 -1 23 5 30 18 22 0 16 -24 -7 -12 -12
-17 -19 -10 -15 6 3 14 2 18 -3 3 -6 -3 -8 -15 -6 -11 2 -20 0 -20 -6 0 -5 -5
-9 -11 -9 -8 0 -8 4 -2 12 5 8 9 107 9 231 -1 119 2 217 7 217 4 0 5 6 0 13
-10 16 -10 397 0 397 5 0 5 6 0 13 -10 16 -11 87 -1 81 5 -3 8 -1 8 5 0 5 -5
13 -11 16 -6 5 -4 16 7 32 16 25 16 26 -1 19 -17 -6 -17 -5 0 20 16 24 16 26
1 21 -33 -13 -15 5 20 19 27 11 34 18 25 27 -14 14 -14 27 1 27 6 0 8 -3 5 -7
-4 -3 -1 -13 5 -21 15 -18 19 -42 7 -42 -5 0 -9 5 -9 12 0 18 -10 3 -15 -22
-2 -12 -9 -28 -16 -36 -9 -11 -9 -14 0 -14 7 0 9 -5 5 -11 -4 -8 -9 -7 -15 2
-5 8 -9 9 -9 4 0 -6 6 -17 13 -24 10 -11 9 -12 -3 -6 -12 7 -13 6 -3 -7 7 -8
10 -18 6 -22 -4 -4 -8 -18 -9 -31 -1 -20 2 -23 18 -14 11 6 18 6 18 0 0 -5 9
-9 19 -8 16 1 18 5 10 19 -10 18 -21 22 -48 18 -13 -1 -13 1 -2 14 13 15 16
15 40 1 22 -14 22 -13 -4 9 -31 27 -28 34 5 16 16 -8 18 -8 14 5 -3 8 -10 12
-15 9 -5 -3 -9 0 -9 5 0 6 9 16 19 23 10 6 17 17 14 24 -2 6 0 15 5 18 6 3 12
-1 16 -9 3 -8 10 -15 16 -15 5 0 2 9 -7 19 -9 11 -21 17 -28 15 -6 -3 -12 2
-12 11 0 9 6 14 13 11 7 -3 23 4 36 15 13 11 18 18 12 15 -6 -3 -11 6 -11 24
0 26 3 28 20 18 16 -8 17 -12 6 -19 -8 -5 -10 -9 -5 -9 5 0 18 8 28 17 18 16
18 17 -2 28 l-21 11 20 25 c11 13 20 19 21 12 0 -6 -5 -15 -11 -19 -8 -4 -7
-9 2 -14 14 -10 41 -2 34 10 -11 19 30 20 45 2 10 -14 25 -19 48 -17 18 1 35
-2 38 -7 7 -11 -39 -14 -99 -5 -17 3 -34 -2 -44 -11 -14 -14 -14 -17 1 -27 9
-7 12 -16 8 -20 -4 -5 -1 -5 6 -1 17 10 15 26 -4 26 -14 0 -14 3 -4 15 11 13
15 13 22 3 7 -10 11 -10 14 -1 8 18 33 4 28 -15 -4 -13 -2 -12 11 3 15 19 17
19 26 3 6 -10 16 -15 25 -11 14 5 15 3 5 -15 -9 -17 -9 -22 1 -22 10 0 10 -2
-1 -9 -7 -5 -9 -11 -5 -14 5 -3 9 -51 9 -106 -1 -56 2 -101 6 -101 4 0 18 15
32 33 47 61 84 97 91 90 4 -4 5 -1 2 7 -7 18 48 80 70 80 8 0 13 -4 10 -8 -3
-5 4 -17 16 -26 15 -14 20 -14 15 -4 -3 8 -1 21 3 28 10 16 52 21 47 6 -2 -6
-12 -10 -21 -10 -9 1 -16 -2 -16 -7 0 -5 9 -9 20 -9 11 0 20 -4 20 -10 0 -5
-9 -10 -19 -10 -11 0 -23 -5 -27 -12 -5 -8 -2 -9 10 -5 10 4 23 4 29 0 7 -4 2
-10 -13 -14 -16 -4 -2 -6 35 -6 57 0 104 19 107 44 1 4 8 13 17 20 9 6 13 15
9 18 -4 4 -2 17 4 28 8 16 7 23 -5 32 -14 10 -11 15 23 33 22 11 40 17 40 11
0 -5 -11 -14 -25 -19 -16 -6 -23 -15 -19 -25 3 -8 11 -12 16 -9 6 4 5 10 -3
15 -11 7 -9 9 6 10 11 1 27 1 35 0 12 -2 13 0 1 7 -11 8 -9 11 8 17 12 3 18
11 15 17 -4 6 1 17 11 25 17 12 17 13 2 13 -9 0 -17 5 -17 10 0 18 27 10 45
-12 15 -22 15 -21 0 6 -17 27 -16 29 0 23 9 -4 19 -7 21 -7 3 0 2 -5 -2 -12
-4 -7 -3 -8 4 -4 6 4 9 13 6 21 -4 8 -10 12 -15 9 -5 -3 -9 1 -9 9 0 8 7 18
16 21 22 9 24 8 18 -9 -4 -8 -1 -15 5 -15 6 0 10 5 8 11 -1 6 4 14 12 17 9 3
11 0 6 -8 -5 -9 -4 -11 4 -6 15 10 3 29 -14 22 -8 -3 -19 2 -27 11 -11 14 -10
15 12 9 17 -5 21 -4 11 2 -11 8 -11 10 0 14 12 4 12 7 0 21 -9 12 -10 17 -2
17 6 0 14 -7 18 -17 5 -14 7 -13 14 5 6 15 14 20 26 16 15 -5 15 -4 3 5 -8 5
-11 13 -7 17 4 4 12 3 18 -3 6 -6 18 -9 25 -6 10 4 8 10 -9 23 -12 10 -18 22
-14 26 4 5 12 2 16 -5 6 -9 8 -3 7 17 -1 17 -9 37 -19 44 -21 16 -14 43 11 45
18 1 21 -9 23 -81 0 -10 3 -15 7 -11 6 6 12 47 13 98 0 15 3 16 15 6 9 -7 11
-16 5 -23 -5 -6 -7 -22 -6 -36 2 -14 4 -29 4 -35 1 -5 5 -3 10 4 6 9 6 22 0
32 -11 22 -11 29 0 29 5 0 11 -8 13 -18 3 -10 15 -18 29 -19 18 -2 20 0 9 7
-8 5 -18 6 -22 4 -4 -3 -9 1 -9 8 -5 47 -4 68 3 68 4 0 18 12 32 26 l24 27 13
-24 c7 -13 10 -26 8 -29 -2 -3 5 -6 16 -7 l20 -3 -20 9 c-11 5 -16 10 -11 10
4 1 1 13 -9 27 -23 35 -13 56 22 49 16 -3 21 -2 13 1 -29 13 -39 41 -15 41 10
0 14 -6 10 -16 -4 -11 -1 -10 14 3 11 10 18 23 14 29 -3 5 0 8 8 5 8 -3 14
-11 14 -19 0 -7 9 -15 20 -16 l20 -3 -20 9 c-11 5 -16 10 -11 10 5 1 3 7 -3
15 -6 7 -9 21 -5 30 3 9 1 16 -6 16 -6 0 -8 -4 -5 -10 3 -5 2 -10 -3 -10 -8 0
-22 22 -22 34 0 1 14 2 30 1 20 0 29 -4 25 -12 -2 -7 -2 -13 0 -13 8 0 37 62
31 67 -3 3 -9 -5 -14 -17 -6 -15 -11 -19 -16 -12 -4 7 -4 18 1 25 12 20 14 49
2 42 -6 -4 -8 -13 -5 -21 3 -8 -1 -17 -9 -21 -13 -4 -13 -8 -3 -20 10 -12 9
-14 -8 -11 -19 3 -34 16 -34 31 0 5 4 6 8 3 4 -2 14 -1 22 5 8 5 10 9 4 9 -7
0 -19 11 -27 24 -15 23 -15 23 9 23 13 1 24 -3 24 -8 0 -5 -5 -9 -11 -9 -5 0
-7 -5 -3 -11 5 -8 10 -6 16 5 13 24 1 36 -33 32 -16 -2 -32 0 -35 5 -5 9 8 13
36 10 11 -1 10 1 -3 9 -12 8 -16 18 -12 31 4 11 1 27 -7 36 -7 9 -8 14 -2 10
17 -10 24 30 8 44 -8 6 -11 16 -7 22 3 5 1 7 -4 4 -6 -4 -21 9 -34 28 -13 19
-28 35 -33 35 -4 0 -6 7 -3 15 4 8 1 17 -5 21 -7 5 -8 2 -3 -7 5 -8 -1 -5 -14
5 -12 11 -19 26 -16 33 2 8 1 11 -5 8 -5 -3 -34 27 -66 66 -45 57 -54 73 -43
81 11 8 11 9 -3 5 -9 -3 -24 3 -33 13 -15 17 -16 22 -4 37 13 16 12 17 -2 5
-14 -11 -21 -7 -48 24 -18 20 -30 42 -27 50 3 8 0 11 -8 8 -8 -3 -17 -1 -21 5
-5 10 6 15 27 12 8 -1 4 26 -6 36 -4 4 -6 2 -4 -6 2 -7 -2 -15 -8 -18 -14 -5
-64 35 -64 52 0 7 -7 15 -15 19 -8 3 -15 10 -15 16 0 6 -11 22 -25 36 -14 14
-23 30 -19 35 3 5 0 8 -6 7 -7 -2 -17 5 -23 15 -7 11 -26 35 -44 54 -18 20
-30 40 -27 45 3 4 -2 8 -11 8 -8 0 -18 7 -22 16 -3 9 -19 31 -34 48 -15 17
-76 90 -135 161 -58 72 -109 133 -113 137 -3 4 -6 -87 -6 -202 0 -135 -3 -210
-10 -211 -52 -7 -203 -3 -214 6 -10 7 -13 7 -9 0 4 -6 -2 -11 -13 -11 -10 0
-19 4 -19 8 0 4 -11 3 -25 -2 -16 -6 -25 -6 -25 0 0 6 5 10 11 10 8 0 8 5 -1
15 -10 12 -10 18 1 32 10 11 10 14 2 9 -8 -4 -13 -1 -13 8 0 21 5 20 31 -6 12
-13 19 -17 15 -10 -4 7 -2 21 5 30 11 14 11 15 0 5 -19 -16 -45 -5 -30 13 6 8
16 11 23 7 6 -3 6 0 -1 7 -11 12 -16 11 -28 -6 -9 -10 -20 -29 -25 -42 -6 -13
-14 -21 -18 -18 -4 2 -8 -4 -8 -15 0 -18 2 -19 12 -4 11 14 12 14 18 -1 8 -22
8 -26 -4 -19 -6 4 -7 -1 -4 -12 5 -14 4 -15 -4 -4 -5 7 -14 11 -18 8 -5 -3 -9
51 -9 119 0 68 4 124 8 124 5 0 5 6 0 13 -10 16 -10 627 0 627 5 0 5 6 0 13
-11 17 -10 346 1 340 5 -4 6 -1 2 5 -4 6 -2 20 3 30 7 14 6 19 -4 19 -7 0 -11
-6 -8 -13 2 -6 0 -14 -4 -17 -5 -3 -10 9 -11 28 -2 25 2 35 15 39 11 3 9 4 -6
3 -13 -1 -26 3 -28 10 -3 8 3 11 16 8 11 -2 24 1 27 7 4 6 3 8 -4 4 -5 -3 -13
0 -15 6 -4 10 -6 10 -6 1 -1 -7 -8 -10 -17 -6 -13 5 -13 7 -2 14 10 7 9 9 -4
9 -16 0 -23 11 -19 33 0 4 -3 7 -9 7 -5 0 -10 9 -10 20 0 11 -3 19 -7 18 -5
-1 -32 22 -62 51 -34 34 -81 67 -130 90 l-76 36 -1410 2 c-1210 2 -1418 0
-1464 -13z m4509 -2428 c0 -8 -9 -18 -20 -21 -11 -4 -17 -11 -14 -17 4 -7 9
-6 14 2 5 8 10 8 14 2 3 -5 -2 -13 -11 -16 -9 -4 -20 -1 -24 6 -5 8 -8 6 -7
-8 1 -12 8 -21 16 -20 8 1 25 -14 40 -32 16 -21 20 -32 11 -30 -9 2 -13 -5
-11 -20 2 -19 -2 -23 -20 -20 -11 2 -22 11 -24 21 -2 12 2 17 11 13 8 -3 17 0
21 6 4 7 3 8 -4 4 -11 -7 -16 5 -13 31 1 6 -4 15 -10 19 -8 5 -9 3 -4 -7 5 -8
-2 -5 -16 6 -13 11 -21 16 -16 11 4 -5 -3 -21 -15 -34 -13 -14 -17 -22 -10
-18 7 4 12 1 12 -9 0 -9 -4 -14 -9 -11 -5 3 -15 -2 -22 -11 -8 -10 -9 -14 -2
-10 6 4 15 2 19 -4 4 -8 3 -9 -5 -5 -6 4 -11 4 -10 -1 3 -19 -2 -23 -18 -14
-15 7 -18 5 -18 -14 0 -13 2 -22 5 -20 3 2 7 -6 7 -17 2 -20 1 -20 -13 -2 -9
11 -13 13 -9 7 4 -9 0 -11 -12 -7 -15 5 -16 4 -3 -5 13 -9 13 -11 0 -11 -12 0
-12 -2 -2 -9 11 -7 10 -9 -3 -14 -10 -5 -14 -3 -9 5 5 7 3 8 -6 3 -8 -5 -11
-4 -6 3 3 6 1 14 -5 18 -7 4 -9 3 -5 -4 3 -6 2 -13 -3 -16 -5 -3 -11 0 -14 8
-3 8 1 17 9 20 9 3 13 10 10 15 -4 5 7 21 24 34 16 14 30 31 30 37 0 7 7 9 16
6 12 -5 14 -1 9 17 -5 17 -4 19 4 7 8 -11 11 -11 12 -2 1 6 2 18 3 25 1 6 8
11 15 9 8 -2 11 3 8 13 -4 8 -3 15 1 15 5 0 21 18 38 40 31 42 44 49 44 26z
m-40 -131 c-5 -7 -7 -15 -3 -18 3 -4 0 -7 -8 -7 -10 -1 -9 -4 4 -11 9 -6 15
-15 11 -21 -4 -6 1 -8 14 -4 22 7 34 -5 38 -40 1 -17 -3 -22 -17 -21 -12 1
-15 5 -9 11 13 13 13 26 -1 26 -5 0 -8 -4 -5 -9 4 -5 1 -11 -5 -13 -7 -2 -13
-13 -13 -24 -1 -11 -6 -26 -11 -34 -6 -8 -15 -24 -21 -35 -6 -11 -16 -19 -23
-17 -7 1 -10 -2 -6 -7 3 -6 -3 -15 -14 -21 -14 -7 -18 -16 -14 -28 6 -15 5
-15 -10 -3 -20 16 -18 36 4 36 8 0 14 7 14 15 0 8 10 16 23 18 13 2 21 9 19
15 -2 7 -13 11 -23 9 -10 -2 -25 -4 -31 -4 -16 -2 -17 -18 -1 -18 15 0 1 -13
-17 -16 -8 -1 -13 6 -12 17 1 10 5 20 9 20 4 1 14 2 21 3 6 0 12 6 12 13 0 6
3 15 8 19 4 4 7 1 7 -6 0 -7 3 -10 7 -7 3 4 13 1 21 -6 13 -10 14 -9 7 2 -6
10 -4 12 6 6 8 -5 5 2 -6 14 -19 22 -19 23 -1 20 10 -2 21 2 24 10 3 10 0 12
-12 8 -11 -4 -15 -3 -11 4 4 6 13 8 20 5 11 -4 13 12 5 34 -1 3 -2 8 -1 13 3
17 -17 5 -27 -18 -6 -14 -16 -25 -22 -25 -7 0 -7 7 1 23 8 16 8 19 0 11 -18
-17 -22 -54 -5 -47 8 3 14 0 14 -6 0 -6 -3 -10 -7 -10 -21 3 -33 -2 -27 -13 5
-7 3 -8 -6 -3 -8 5 -11 4 -7 -2 8 -13 -39 -46 -53 -38 -5 3 -11 1 -15 -5 -3
-5 -11 -10 -18 -10 -8 0 -8 3 0 11 6 6 9 19 6 28 -4 12 -3 13 5 2 7 -10 14
-10 29 -2 11 5 24 7 29 3 5 -4 2 1 -6 11 -12 17 -12 18 6 15 16 -2 19 2 17 32
0 19 1 29 4 22 3 -8 11 -5 23 10 13 16 15 27 8 35 -7 9 -4 11 11 8 23 -4 26 2
11 25 -6 9 -5 19 3 28 9 12 13 11 24 -4 8 -11 9 -21 3 -29z m-2 -79 c-2 -1
-12 -8 -22 -16 -18 -14 -18 -14 -6 7 8 12 18 19 23 16 4 -3 7 -6 5 -7z m-38
-61 c11 -13 10 -14 -4 -9 -9 3 -16 10 -16 15 0 13 6 11 20 -6z m-141 -41 c-13
-16 7 -30 24 -15 8 6 18 6 27 1 12 -8 12 -10 1 -10 -11 0 -11 -3 -1 -15 7 -8
17 -12 22 -9 6 4 2 -5 -7 -19 -9 -15 -14 -31 -11 -36 4 -5 2 -13 -4 -16 -6 -4
-10 -3 -9 2 1 4 1 14 0 22 -1 11 -4 11 -18 0 -9 -8 -18 -13 -20 -11 -10 7 -20
0 -18 -15 3 -29 16 -53 26 -47 15 9 10 -8 -8 -28 -15 -17 -15 -19 3 -40 10
-13 12 -18 4 -12 -8 7 -26 10 -40 9 -14 -2 -32 -4 -40 -4 -13 -1 -13 -2 0 -11
9 -6 17 -5 21 2 4 7 9 7 13 0 9 -14 -3 -19 -39 -17 -47 4 -48 4 -35 20 10 12
10 15 0 15 -8 0 -10 3 -7 6 4 4 13 1 22 -6 11 -9 15 -9 15 -1 0 7 4 10 9 6 6
-3 14 3 20 12 6 10 11 12 11 6 0 -18 17 -16 17 2 0 8 -4 12 -9 9 -4 -3 -8 0
-8 6 0 7 8 9 21 5 16 -5 20 -3 17 6 -3 8 -13 12 -23 11 -17 -3 -17 -2 -5 15
12 15 12 16 0 6 -22 -20 -35 -15 -16 6 15 16 15 19 1 31 -8 7 -15 18 -15 24 0
7 3 8 8 1 13 -19 37 -11 33 10 -3 20 -3 20 20 0 12 -11 19 -15 15 -8 -4 8 0
11 15 8 17 -3 19 -2 9 10 -6 8 -9 18 -6 23 3 5 -1 9 -8 9 -8 0 -13 -5 -12 -11
2 -6 1 -7 -2 -2 -2 4 -9 2 -14 -5 -6 -10 -7 -7 -3 10 5 16 4 21 -4 17 -6 -4
-11 -14 -11 -22 0 -8 -5 -12 -10 -9 -6 4 -8 10 -5 15 3 5 0 12 -6 16 -7 4 -9
3 -6 -3 4 -6 0 -16 -8 -23 -12 -10 -15 -10 -15 1 0 11 -2 11 -10 -1 -5 -9 -5
-19 2 -27 6 -8 8 -16 4 -20 -3 -3 -6 -2 -6 4 0 5 -6 10 -14 10 -8 0 -13 -8
-11 -19 2 -10 -1 -18 -6 -18 -6 0 -8 -4 -4 -9 3 -6 -4 -8 -15 -6 -13 3 -18 0
-14 -7 5 -7 2 -8 -6 -3 -9 6 -11 4 -5 -5 5 -9 4 -11 -3 -6 -8 5 -10 1 -5 -10
5 -14 3 -16 -13 -11 -18 7 -18 6 1 -9 17 -14 17 -16 2 -10 -12 4 -16 2 -11 -6
5 -7 3 -8 -6 -3 -9 6 -11 4 -5 -5 6 -9 4 -11 -5 -5 -9 6 -11 4 -5 -5 5 -8 4
-11 -1 -7 -6 3 -16 2 -24 -4 -10 -6 -11 -9 -2 -9 6 0 12 -5 12 -11 0 -5 -4 -8
-9 -4 -5 3 -13 0 -17 -6 -5 -8 -3 -9 5 -4 8 4 7 -2 -3 -17 -9 -14 -13 -28 -9
-33 5 -4 2 -5 -6 0 -10 6 -12 4 -6 -5 5 -8 4 -11 -2 -7 -5 3 -10 0 -10 -8 0
-20 7 -19 23 3 7 9 14 12 14 5 0 -6 -4 -14 -10 -18 -5 -3 -7 -13 -4 -23 5 -14
4 -15 -5 -2 -5 8 -13 11 -18 7 -4 -5 -1 -12 7 -17 8 -6 11 -10 6 -10 -6 0 -5
-5 1 -11 6 -6 9 -18 6 -25 -6 -17 -24 -19 -21 -1 2 6 -3 11 -9 9 -7 -1 -14 2
-14 8 -1 5 -3 15 -4 20 -1 6 -3 16 -4 23 -1 8 -4 7 -11 -3 -9 -13 -10 -13 -10
0 0 13 -2 13 -9 0 -6 -8 -7 -18 -4 -24 4 -5 1 -6 -7 -1 -9 5 -11 4 -6 -4 4 -6
12 -8 18 -5 6 4 9 1 6 -7 -3 -9 -17 -13 -36 -11 -18 1 -32 -3 -32 -9 0 -5 4
-8 9 -5 5 3 17 -2 28 -12 10 -9 14 -14 8 -10 -7 4 -15 5 -18 1 -4 -3 -7 0 -7
8 0 12 -2 12 -10 -1 -5 -9 -5 -19 2 -27 6 -8 8 -16 4 -20 -3 -4 -13 2 -22 13
-8 10 -12 13 -8 5 4 -9 3 -12 -4 -7 -7 4 -10 -1 -7 -14 2 -11 0 -20 -6 -20 -5
0 -9 5 -9 11 0 5 -5 7 -11 3 -8 -5 -8 -9 1 -14 6 -4 11 -11 10 -16 -1 -5 4
-10 12 -12 9 -2 8 0 -2 7 -8 6 -12 11 -8 11 3 0 14 3 23 6 10 4 15 2 13 -7 -4
-20 -20 -29 -40 -23 -11 3 -19 -2 -23 -16 -3 -11 -11 -20 -17 -20 -6 0 -5 6 2
16 8 8 9 14 4 13 -19 -3 -34 1 -34 11 0 6 11 8 24 6 21 -4 24 -1 20 17 -2 11
2 24 9 29 6 4 12 12 12 17 0 9 55 77 102 126 7 7 9 16 5 20 -4 4 -2 5 3 3 6
-1 10 -1 10 2 0 12 31 37 39 32 5 -3 7 2 3 11 -4 10 -2 16 6 14 7 -1 11 3 10
10 -2 6 11 23 28 37 16 14 30 29 31 33 2 22 12 34 25 29 8 -4 11 -1 7 5 -4 6
0 15 7 20 8 4 15 13 15 19 1 5 2 13 3 16 0 4 9 0 18 -7 15 -12 16 -12 10 3 -3
10 0 24 8 32 8 7 12 16 9 19 -9 8 32 27 41 19 5 -4 5 1 2 11 -4 11 -3 16 4 12
6 -4 9 0 7 8 -2 8 6 24 17 35 18 18 21 18 32 4 9 -11 10 -19 2 -28z m-29 -75
c10 -18 10 -19 -8 -10 -11 6 -22 8 -25 5 -3 -3 -8 0 -13 7 -4 7 -3 10 4 5 6
-3 13 -2 17 4 9 14 13 13 25 -11z m-19 -46 c7 -7 5 -14 -5 -22 -15 -13 -11
-45 5 -35 5 3 4 -6 -2 -19 -8 -18 -18 -24 -42 -23 -25 1 -31 -3 -32 -22 -1
-12 5 -30 12 -40 8 -9 11 -11 8 -4 -6 12 -3 12 16 2 22 -12 22 -13 3 -27 -10
-8 -17 -22 -16 -31 3 -14 1 -15 -9 -4 -10 9 -10 15 -1 24 9 9 7 14 -6 24 -9 7
-17 25 -18 41 0 17 -5 27 -13 25 -7 -1 -9 2 -5 9 4 8 3 9 -5 5 -6 -4 -9 -12
-6 -17 4 -5 1 -9 -5 -9 -6 0 -8 -5 -4 -11 4 -8 9 -7 15 2 5 8 9 9 9 4 0 -6 -6
-17 -12 -25 -10 -11 -9 -11 7 0 18 14 19 14 6 -2 -7 -10 -17 -15 -22 -12 -8 5
-13 -9 -10 -28 1 -8 -15 -12 -31 -9 -5 0 -8 -4 -8 -9 0 -5 5 -10 11 -10 5 0 8
-4 4 -9 -3 -6 4 -15 16 -21 15 -8 19 -9 15 -1 -4 6 -2 11 4 11 8 0 9 -7 5 -17
-4 -10 -9 -29 -10 -43 -1 -14 -3 -31 -4 -39 0 -8 -4 -11 -8 -7 -11 11 -10 30
2 39 5 5 1 6 -11 3 -15 -5 -21 -2 -21 9 0 9 6 14 13 11 28 -11 22 12 -9 34
-18 14 -26 17 -18 7 11 -14 11 -17 0 -17 -9 0 -10 -3 -4 -8 10 -6 11 -20 5
-39 -1 -5 -2 -12 -1 -16 1 -5 -4 -5 -10 -1 -8 5 -9 3 -4 -5 5 -9 10 -10 18 -2
6 6 16 11 21 11 5 0 4 -6 -3 -12 -17 -18 -84 -17 -97 0 -9 12 -11 12 -11 -2 0
-9 5 -16 10 -16 5 0 4 -7 -3 -15 -9 -10 -9 -15 -1 -15 6 0 11 5 11 12 0 6 3 8
6 5 4 -3 16 -2 28 4 18 9 17 7 -3 -9 -23 -18 -23 -20 -5 -30 10 -6 15 -14 11
-18 -5 -5 -11 -3 -15 3 -4 6 -14 13 -22 15 -8 2 -21 12 -28 23 l-13 20 5 -20
c6 -20 6 -20 -9 -1 -8 11 -15 16 -16 10 0 -5 -2 -18 -4 -29 -2 -10 1 -25 7
-32 13 -16 4 -17 -21 -1 -18 11 -18 14 -4 35 12 18 13 26 4 37 -10 11 -9 14 3
12 9 -1 18 -5 22 -9 17 -16 23 7 7 26 -10 11 -13 17 -7 14 18 -10 39 20 25 36
-8 10 -7 14 4 14 8 0 13 -2 10 -5 -8 -8 16 -43 26 -37 5 4 8 1 7 -7 -4 -20 23
-16 36 6 8 14 8 20 -2 23 -10 4 -10 8 -1 19 7 8 9 17 6 21 -4 3 -2 12 4 20 9
9 8 17 0 27 -8 10 -6 19 10 39 11 15 17 32 13 39 -4 7 -4 10 1 6 10 -10 58 29
61 49 3 20 34 52 34 36 0 -7 -5 -15 -10 -18 -8 -5 -7 -11 1 -21 6 -7 15 -12
19 -9 5 3 11 1 15 -4 7 -12 35 -3 35 11 0 5 -4 7 -9 3 -5 -3 -12 -1 -16 5 -4
6 -11 7 -17 4 -7 -5 -8 -2 -3 6 6 9 4 11 -4 5 -8 -5 -7 3 3 23 8 16 12 32 9
36 -4 4 3 5 15 3 12 -2 27 -8 33 -14z m-75 -217 c-3 -36 -12 -56 -25 -56 -5 0
-8 8 -7 18 1 12 -5 16 -24 14 -19 -2 -22 0 -10 8 13 8 13 10 1 10 -11 0 -9 4
5 15 10 8 15 15 10 15 -6 0 -1 6 10 14 26 20 43 3 40 -38z m-846 -36 c0 -5 -5
-10 -11 -10 -5 0 -7 5 -4 10 3 6 8 10 11 10 2 0 4 -4 4 -10z m41 -3 c-12 -16
-5 -27 18 -27 14 0 14 2 1 10 -11 7 -11 10 -2 10 7 0 10 5 6 11 -4 8 0 8 15 0
16 -9 21 -9 21 1 0 8 3 9 8 3 11 -15 46 -19 36 -4 -5 8 -3 9 7 3 21 -13 39
-14 39 -2 0 6 6 5 15 -2 12 -10 15 -10 15 1 0 12 2 12 9 1 4 -8 11 -13 15 -13
3 1 12 1 19 0 9 0 9 -2 0 -6 -9 -3 -10 -10 -3 -22 11 -21 -13 -62 -27 -47 -4
5 -2 11 6 14 11 4 11 6 0 13 -10 6 -11 9 -1 9 6 0 12 5 12 11 0 8 -4 8 -14 0
-8 -6 -18 -11 -22 -10 -21 4 -35 -2 -29 -11 4 -6 16 -8 28 -4 21 6 21 5 4 -12
-16 -18 -18 -18 -33 4 -18 26 -44 25 -62 -3 -13 -20 -13 -19 -7 2 9 32 -11 37
-34 7 -11 -14 -25 -23 -30 -20 -5 4 -13 2 -16 -4 -4 -6 -3 -9 2 -8 14 4 53
-13 53 -23 0 -5 -11 -2 -24 6 -28 19 -35 12 -32 -32 1 -19 -3 -34 -11 -37 -14
-6 -14 35 0 45 5 3 2 9 -6 12 -12 4 -14 0 -11 -18 2 -13 0 -27 -6 -30 -5 -3
-11 -1 -11 4 -1 6 -2 15 -3 19 0 5 -9 17 -20 27 -16 17 -17 20 -3 30 15 10 15
13 -1 28 -10 11 -12 17 -4 17 7 0 12 -4 12 -10 0 -17 14 -11 28 10 11 19 11
20 -12 14 -26 -6 -44 10 -25 22 7 4 9 3 6 -3 -5 -7 6 -11 28 -10 29 1 32 3 22
16 -9 11 -9 13 0 8 6 -4 14 -3 18 3 3 5 9 10 12 10 3 0 0 -6 -6 -13z m-98 -12
c-3 -9 -8 -14 -10 -11 -3 3 -2 9 2 15 9 16 15 13 8 -4z m-4375 -19 c7 -4 19
-3 26 3 7 6 16 7 20 3 4 -4 17 -7 29 -7 13 -1 21 -6 19 -15 -3 -11 0 -11 12 0
11 8 16 9 16 1 0 -6 5 -11 11 -11 5 0 7 4 4 10 -3 5 0 7 7 5 8 -3 14 -14 15
-25 2 -19 0 -19 -23 -4 -22 15 -29 13 -25 -8 0 -5 -3 -8 -8 -8 -11 0 -23 29
-16 39 2 4 -2 8 -9 8 -8 0 -12 -7 -9 -15 5 -12 2 -12 -15 -3 -22 12 -56 2 -64
-18 -1 -5 -10 5 -19 23 -16 30 -16 32 0 31 9 0 22 -4 29 -9z m192 -7 c0 -6 -5
-7 -11 -3 -7 4 -7 -1 1 -15 9 -17 9 -26 -1 -37 -6 -8 -14 -12 -17 -9 -3 2 1
11 8 20 7 8 8 15 3 15 -8 0 -11 32 -4 48 3 7 21 -10 21 -19z m22 -7 c-21 -7
-13 -20 11 -18 31 4 49 15 42 26 -3 5 7 3 21 -5 15 -8 31 -12 36 -9 15 10 48
13 43 4 -3 -5 0 -12 6 -16 7 -4 3 -14 -12 -29 l-24 -22 -39 24 c-21 14 -35 20
-32 15 12 -20 -15 -24 -35 -6 -18 16 -19 16 -13 1 3 -9 2 -17 -4 -17 -12 0
-22 37 -15 56 3 8 10 11 16 7 8 -5 7 -8 -1 -11z m242 0 c19 10 20 10 7 -5 -7
-10 -10 -17 -6 -17 4 0 2 -7 -5 -15 -6 -8 -8 -20 -4 -27 4 -7 4 -10 -1 -6 -4
4 -14 3 -22 -3 -7 -6 -14 -8 -14 -3 -6 37 -5 54 1 54 15 0 19 -14 7 -29 -10
-14 -10 -14 5 -3 14 11 15 17 6 32 -7 10 -16 16 -22 13 -5 -4 -6 -1 -1 6 5 9
10 10 18 2 7 -7 17 -7 31 1z m-389 -40 c3 -8 1 -20 -4 -25 -13 -13 -34 2 -27
19 3 7 0 16 -6 20 -7 4 -8 3 -4 -4 4 -7 3 -12 -3 -12 -16 0 -22 18 -9 23 20 6
46 -4 53 -21z m485 13 c-7 -8 -17 -12 -23 -8 -6 4 -3 9 9 14 27 11 28 11 14
-6z m3825 4 c11 -16 1 -19 -13 -3 -7 8 -8 14 -3 14 5 0 13 -5 16 -11z m-4264
-29 c1 8 1 19 0 23 -1 4 8 3 19 -3 28 -15 20 -34 -13 -37 -18 -1 -30 5 -37 17
-16 30 -12 34 10 9 14 -18 20 -20 21 -9z m4262 -13 c3 -8 2 -20 -3 -26 -5 -9
-7 -4 -7 13 0 29 2 32 10 13z m317 -11 c0 -3 -4 -8 -10 -11 -5 -3 -10 -1 -10
4 0 6 5 11 10 11 6 0 10 -2 10 -4z m315 -16 c3 -6 -1 -7 -9 -4 -18 7 -21 14
-7 14 6 0 13 -4 16 -10z m87 -15 c2 3 13 -4 23 -15 18 -20 18 -20 -4 -17 -12
2 -26 9 -31 16 -5 9 -10 10 -14 2 -4 -6 -3 -11 3 -11 6 0 8 -6 5 -13 -3 -8
-11 -14 -19 -14 -11 0 -12 4 -4 13 6 8 7 14 0 18 -5 4 -9 15 -8 25 1 17 3 17
22 5 12 -8 24 -12 27 -9z m-162 1 c0 -3 -4 -8 -10 -11 -5 -3 -10 -1 -10 4 0 6
5 11 10 11 6 0 10 -2 10 -4z m-555 -16 c3 -5 1 -10 -4 -10 -6 0 -11 5 -11 10
0 6 2 10 4 10 3 0 8 -4 11 -10z m-25 -10 c0 -5 -5 -10 -11 -10 -5 0 -7 5 -4
10 3 6 8 10 11 10 2 0 4 -4 4 -10z m680 -20 c6 -11 16 -17 22 -14 8 5 9 1 5
-12 -7 -18 -7 -18 8 0 8 11 15 23 15 26 0 4 7 7 16 7 14 0 14 -2 -2 -14 -21
-15 -11 -17 17 -3 11 6 19 7 19 1 0 -5 -7 -12 -16 -15 -9 -4 -14 -9 -11 -13
13 -13 -42 -43 -75 -40 -34 3 -36 8 -29 82 2 21 18 19 31 -5z m-610 -39 c0
-10 -12 -28 -27 -42 -14 -13 -22 -17 -18 -9 8 13 11 26 17 67 2 18 28 3 28
-16z m-10 -134 c0 -8 -3 -8 -11 0 -6 6 -19 9 -28 6 -13 -4 -13 -3 -2 5 16 12
41 5 41 -11z m-61 -940 c13 -17 5 -27 -17 -21 -10 3 -7 -1 6 -9 21 -12 21 -15
8 -26 -8 -7 -21 -9 -27 -5 -8 5 -9 3 -4 -6 5 -8 4 -11 -2 -7 -5 3 -10 0 -10
-8 0 -11 4 -12 13 -4 10 8 19 7 33 -3 16 -11 17 -16 6 -31 -10 -14 -14 -15
-18 -5 -4 10 -8 10 -16 -2 -6 -9 -6 -19 -1 -26 10 -11 3 -24 -12 -24 -5 0 -6
5 -2 12 5 7 3 8 -6 3 -9 -5 -11 -4 -6 3 4 7 3 20 -3 29 -8 15 -10 12 -9 -14 1
-18 5 -33 10 -33 5 0 6 -5 2 -11 -4 -8 -11 -3 -20 12 -7 13 -10 28 -7 33 4 5
1 6 -5 2 -9 -5 -9 -13 -2 -27 6 -10 7 -19 3 -19 -4 0 -1 -5 7 -10 12 -7 12
-12 2 -22 -6 -6 -12 -20 -12 -31 0 -10 -5 -15 -11 -12 -6 4 -8 13 -5 20 6 16
-13 35 -29 28 -10 -3 -8 -10 8 -26 13 -13 17 -22 9 -25 -7 -2 -10 -7 -7 -12 3
-4 -2 -13 -10 -20 -12 -10 -15 -10 -15 2 0 8 3 18 7 22 12 12 11 34 -2 39 -8
4 -11 -3 -10 -18 2 -18 -2 -22 -20 -21 -15 1 -23 7 -22 18 1 12 5 14 13 7 8
-7 15 -6 20 2 4 8 3 9 -4 5 -18 -11 -14 -2 9 25 12 13 33 40 48 59 30 41 42
51 53 44 4 -3 8 0 8 5 0 6 -6 11 -12 12 -10 0 -10 2 -1 5 7 3 9 12 6 20 -3 8
0 14 7 14 6 0 8 5 5 10 -3 6 -1 10 4 10 6 0 10 3 10 8 -6 38 9 53 30 29z m-25
-196 c3 -5 -5 -16 -19 -25 -27 -18 -30 -15 -15 15 11 20 25 25 34 10z m-160
-85 c20 8 28 -12 11 -26 -8 -7 -12 -17 -9 -22 4 -6 -3 -5 -14 1 -18 10 -24 8
-38 -14 -9 -14 -20 -23 -24 -20 -5 3 -11 1 -15 -5 -3 -5 -11 -10 -17 -10 -7 0
-7 4 1 13 6 8 7 17 3 22 -4 4 4 5 18 1 14 -3 19 -3 11 0 -11 5 -11 8 0 15 10
6 7 8 -9 6 -20 -1 -26 -9 -23 -29 0 -5 -4 -8 -10 -8 -6 0 -9 6 -6 13 3 7 -5
13 -21 14 -22 1 -23 0 -9 -9 21 -11 13 -30 -10 -21 -12 5 -15 2 -10 -9 9 -24
-19 -30 -53 -13 -27 14 -30 14 -40 -5 -14 -25 -22 -25 -38 1 -8 12 -9 18 -3
15 5 -4 17 4 25 16 9 12 16 17 16 11 0 -6 7 -14 16 -17 14 -5 15 -4 5 8 -11
13 -9 14 14 10 15 -3 24 -1 21 5 -3 5 2 8 11 7 9 -2 28 3 41 10 14 7 31 10 40
7 11 -5 13 -3 7 7 -5 8 -4 11 3 6 6 -3 13 -2 17 4 4 6 10 8 15 5 4 -3 11 2 14
11 3 8 10 12 16 9 5 -3 10 0 10 7 0 8 4 7 11 -4 5 -9 16 -15 23 -12z m-1954
-96 c-9 -6 -18 -5 -25 2 -7 7 -6 12 3 15 6 3 9 10 6 16 -4 7 2 4 12 -6 16 -15
17 -19 4 -27z m618 27 c6 -5 12 -4 12 0 0 5 18 9 40 9 22 0 40 -3 40 -8 0 -4
5 -8 11 -8 5 0 8 4 5 8 -3 5 1 9 9 9 8 0 15 -4 15 -9 0 -4 5 -8 11 -8 5 0 8 4
5 8 -3 5 1 9 9 9 8 0 15 -4 15 -9 0 -4 5 -8 11 -8 5 0 8 4 5 8 -3 5 1 9 9 9 8
0 15 -5 15 -10 0 -5 5 -5 13 1 17 15 53 8 49 -9 -7 -26 -33 -31 -92 -17 -9 2
-14 -4 -14 -14 1 -14 -2 -15 -17 -5 -10 6 -16 14 -13 18 8 14 -17 21 -31 9
-11 -9 -15 -9 -15 -1 0 6 -5 11 -11 11 -5 0 -8 -4 -5 -8 4 -7 -9 -10 -51 -13
-20 -1 -59 7 -72 16 -5 3 -12 1 -16 -5 -4 -6 -11 -8 -16 -5 -5 4 -9 1 -9 -6 0
-16 -15 -2 -15 14 -1 7 3 15 7 18 12 8 81 5 96 -4z m772 1 c0 -4 5 -8 11 -8 5
0 8 4 5 8 -3 5 1 9 9 9 8 0 15 -4 15 -9 0 -4 5 -8 11 -8 5 0 8 4 5 8 -3 5 1 9
9 9 8 0 15 -5 15 -10 0 -5 5 -5 13 1 17 15 53 8 49 -9 -7 -26 -33 -31 -92 -17
-9 2 -14 -4 -14 -14 1 -14 -2 -15 -17 -5 -10 6 -17 14 -16 18 1 4 -6 14 -17
22 -16 12 -16 14 -2 14 9 0 16 -4 16 -9z m-1630 -23 c7 -8 8 -15 2 -15 -5 0
-15 7 -22 15 -7 8 -8 15 -2 15 5 0 15 -7 22 -15z m670 11 c0 -3 -4 -8 -10 -11
-5 -3 -10 -1 -10 4 0 6 5 11 10 11 6 0 10 -2 10 -4z m-838 -27 c-2 -8 5 -6 19
6 l22 20 -12 -22 c-14 -28 -26 -29 -40 -5 -6 10 -11 12 -11 4 0 -7 -5 -10 -11
-6 -8 4 -7 9 2 15 18 11 35 5 31 -12z m1600 0 c-2 -8 5 -6 19 6 l22 20 -12
-22 c-14 -28 -26 -29 -40 -5 -6 10 -11 12 -11 4 0 -7 -5 -10 -11 -6 -8 4 -7 9
2 15 18 11 35 5 31 -12z"/>
<path d="M6556 3341 c-3 -5 1 -11 9 -14 9 -4 12 -1 8 9 -6 16 -10 17 -17 5z"/>
<path d="M6430 3281 c0 -5 7 -12 16 -15 14 -5 15 -4 4 9 -14 17 -20 19 -20 6z"/>
<path d="M6390 3244 c-17 -20 -21 -42 -9 -50 5 -3 8 -1 7 5 -2 5 5 16 14 23
11 8 15 18 9 26 -6 10 -11 10 -21 -4z m20 -8 c0 -2 -7 -7 -16 -10 -8 -3 -12
-2 -9 4 6 10 25 14 25 6z"/>
<path d="M6493 3275 c0 -8 4 -12 9 -9 5 3 6 10 3 15 -9 13 -12 11 -12 -6z"/>
<path d="M6400 3150 c-9 -6 -10 -10 -3 -10 6 0 15 5 18 10 8 12 4 12 -15 0z"/>
<path d="M6317 3149 c-14 -8 -15 -14 -6 -30 9 -18 24 -19 24 -1 0 4 4 12 8 19
10 16 -5 23 -26 12z m18 -9 c-3 -5 -12 -10 -18 -10 -7 0 -6 4 3 10 19 12 23
12 15 0z"/>
<path d="M6250 2880 c0 -5 5 -10 11 -10 5 0 7 5 4 10 -3 6 -8 10 -11 10 -2 0
-4 -4 -4 -10z"/>
<path d="M6063 2822 c-18 -21 -36 -42 -40 -47 -5 -4 -3 -5 4 -1 11 6 37 -26
28 -36 -2 -2 5 -9 16 -16 19 -12 19 -12 6 10 -17 26 -17 69 -1 89 14 18 26 39
22 39 -2 0 -18 -17 -35 -38z m-6 -37 c0 -8 -4 -12 -9 -9 -5 3 -6 10 -3 15 9
13 12 11 12 -6z"/>
<path d="M5975 2720 c3 -5 8 -10 11 -10 2 0 4 5 4 10 0 6 -5 10 -11 10 -5 0
-7 -4 -4 -10z"/>
<path d="M5924 2669 c-19 -22 -19 -22 4 -8 12 8 22 17 22 21 0 12 -6 9 -26
-13z"/>
<path d="M6265 3000 c-16 -18 -16 -20 0 -37 13 -13 17 -14 13 -3 -3 8 1 22 9
32 20 23 -1 32 -22 8z m25 6 c0 -2 -8 -10 -17 -17 -16 -13 -17 -12 -4 4 13 16
21 21 21 13z"/>
<path d="M6204 2933 c2 -10 6 -17 10 -16 15 3 16 11 2 22 -12 10 -14 9 -12 -6z"/>
<path d="M6144 2873 c-10 -16 -17 -34 -16 -42 2 -8 -1 -10 -10 -5 -7 4 -9 3
-5 -1 16 -18 33 -12 49 16 10 17 13 31 7 34 -5 4 -7 11 -4 16 14 22 -5 6 -21
-18z m19 -10 c-7 -2 -13 -11 -13 -19 0 -9 -5 -12 -10 -9 -13 8 6 35 24 34 7 0
6 -2 -1 -6z"/>
<path d="M6021 2696 c-8 -10 -9 -16 -1 -21 6 -4 10 -3 9 2 -4 21 2 24 19 12
15 -13 16 -12 3 4 -16 21 -16 21 -30 3z"/>
<path d="M6195 2829 c-6 -8 -4 -10 5 -4 10 6 12 4 6 -11 -6 -15 -5 -17 5 -6 9
9 10 15 2 23 -8 8 -13 7 -18 -2z"/>
<path d="M6177 2803 c-3 -5 3 -14 13 -21 14 -9 21 -9 26 0 4 6 3 8 -4 4 -6 -3
-15 1 -20 10 -5 9 -12 12 -15 7z"/>
<path d="M5455 2739 c4 -5 -1 -12 -10 -15 -13 -6 -14 -8 -3 -15 9 -6 9 -9 1
-9 -7 0 -17 8 -22 18 -6 10 -11 12 -11 4 0 -7 -4 -11 -10 -7 -5 3 -16 -8 -24
-24 -9 -16 -21 -31 -27 -33 -6 -2 -1 -12 11 -23 15 -13 20 -15 18 -5 -2 8 4
14 12 15 8 0 16 6 16 13 1 6 2 17 3 22 0 6 9 10 20 10 21 0 45 23 34 33 -3 4
1 7 10 7 24 0 21 15 -3 17 -11 1 -18 -2 -15 -8z m-35 -35 c0 -8 -19 -13 -24
-6 -3 5 1 9 9 9 8 0 15 -2 15 -3z m-24 -40 c1 -9 0 -13 -4 -10 -3 4 -7 14 -8
22 -1 9 0 13 4 10 3 -4 7 -14 8 -22z"/>
<path d="M5503 2727 c0 -12 1 -16 4 -8 5 11 7 11 14 0 7 -12 9 -12 9 0 0 11 3
11 17 0 11 -9 14 -10 9 -2 -5 9 1 12 23 9 17 -2 35 2 40 8 7 9 -1 12 -30 12
-21 0 -39 -3 -39 -7 0 -8 -20 -7 -35 3 -6 4 -11 -3 -12 -15z"/>
<path d="M926 2721 c-4 -5 -2 -12 3 -15 5 -4 12 -2 15 3 4 5 2 12 -3 15 -5 4
-12 2 -15 -3z"/>
<path d="M1226 2695 c3 -8 10 -13 14 -10 5 3 11 -1 13 -7 4 -10 6 -10 6 -1 1
7 -8 17 -19 23 -16 9 -18 8 -14 -5z"/>
<path d="M1274 2681 c3 -19 4 -19 31 -3 11 6 16 12 10 12 -5 1 -17 3 -26 5
-11 2 -16 -3 -15 -14z"/>
<path d="M5966 2551 c5 -18 3 -22 -7 -16 -11 6 -12 5 -2 -5 10 -10 10 -17 1
-29 -10 -13 -10 -14 2 -3 15 13 34 17 26 4 -2 -4 4 -8 14 -8 10 0 23 9 30 21
10 16 10 18 -1 8 -21 -20 -34 -15 -52 20 -12 22 -15 25 -11 8z"/>
<path d="M5346 2513 c-6 -14 -5 -15 5 -6 7 7 10 15 7 18 -3 3 -9 -2 -12 -12z"/>
<path d="M5270 1400 c0 -5 5 -10 11 -10 5 0 7 5 4 10 -3 6 -8 10 -11 10 -2 0
-4 -4 -4 -10z"/>
<path d="M5267 1342 c-10 -10 -17 -23 -17 -28 0 -4 7 2 16 14 8 12 20 19 26
16 7 -4 8 -2 4 4 -9 15 -10 15 -29 -6z"/>
<path d="M5174 1257 c-10 -12 -15 -19 -10 -14 5 4 17 0 27 -9 10 -9 19 -11 23
-5 4 5 2 12 -4 16 -6 4 -8 10 -5 15 12 20 -14 18 -31 -3z m23 6 c-4 -3 -1 -13
6 -22 11 -14 10 -14 -5 -2 -16 12 -16 31 -1 31 4 0 3 -3 0 -7z"/>
<path d="M5060 1165 c-1 -5 -4 -20 -5 -33 -2 -21 -1 -21 15 -7 9 8 19 12 23 9
3 -4 14 2 24 12 15 15 15 17 2 12 -9 -4 -22 -1 -29 5 -10 9 -11 9 -6 0 3 -6 2
-14 -3 -17 -5 -4 -12 2 -14 11 -3 10 -6 14 -7 8z"/>
<path d="M4919 1106 c0 -1 -2 -9 -4 -18 -4 -23 7 -23 22 0 9 15 8 19 -3 19 -8
0 -14 -1 -15 -1z"/>
<path d="M4886 1087 c3 -10 9 -15 12 -12 3 3 0 11 -7 18 -10 9 -11 8 -5 -6z"/>
<path d="M4836 1075 c-9 -26 -7 -32 5 -12 6 10 9 21 6 23 -2 3 -7 -2 -11 -11z"/>
<path d="M3696 1088 c3 -5 10 -6 15 -3 13 9 11 12 -6 12 -8 0 -12 -4 -9 -9z"/>
<path d="M3732 1095 c3 -3 16 -8 28 -10 12 -2 20 -1 16 2 -4 4 -16 8 -28 10
-12 2 -19 1 -16 -2z"/>
<path d="M3816 1088 c3 -4 11 -5 19 -1 21 7 19 12 -4 10 -11 0 -18 -5 -15 -9z"/>
<path d="M4005 1090 c-3 -5 0 -12 6 -16 8 -5 9 -3 4 6 -6 10 -4 12 8 7 9 -3
18 -3 21 1 3 4 -4 8 -14 9 -11 1 -22 -2 -25 -7z"/>
<path d="M3790 1080 c0 -5 5 -10 11 -10 5 0 7 5 4 10 -3 6 -8 10 -11 10 -2 0
-4 -4 -4 -10z"/>
<path d="M3930 1079 c0 -5 5 -7 10 -4 6 3 10 8 10 11 0 2 -4 4 -10 4 -5 0 -10
-5 -10 -11z"/>
<path d="M3975 1080 c3 -5 8 -10 11 -10 2 0 4 5 4 10 0 6 -5 10 -11 10 -5 0
-7 -4 -4 -10z"/>
<path d="M4645 1090 c-3 -5 0 -12 6 -16 8 -5 9 -3 4 6 -6 10 -4 12 8 7 9 -3
18 -3 21 1 3 4 -4 8 -14 9 -11 1 -22 -2 -25 -7z"/>
<path d="M4570 1079 c0 -5 5 -7 10 -4 6 3 10 8 10 11 0 2 -4 4 -10 4 -5 0 -10
-5 -10 -11z"/>
<path d="M4615 1080 c3 -5 8 -10 11 -10 2 0 4 5 4 10 0 6 -5 10 -11 10 -5 0
-7 -4 -4 -10z"/>
<path d="M5316 5515 c-9 -26 -7 -32 5 -12 6 10 9 21 6 23 -2 3 -7 -2 -11 -11z"/>
<path d="M5294 5435 c0 -14 4 -25 9 -25 4 0 6 -4 3 -9 -3 -4 4 -8 16 -7 12 0
23 7 24 14 1 7 0 8 -3 2 -2 -5 -8 -10 -13 -10 -11 0 -7 33 5 43 6 5 3 7 -6 4
-9 -3 -21 -1 -26 4 -5 5 -9 -1 -9 -16z m24 -20 c-3 -3 -9 2 -12 12 -6 14 -5
15 5 6 7 -7 10 -15 7 -18z"/>
<path d="M5350 5381 c0 -6 4 -12 8 -15 5 -3 9 1 9 9 0 8 -4 15 -9 15 -4 0 -8
-4 -8 -9z"/>
<path d="M5294 5356 c1 -12 9 -30 19 -40 9 -11 17 -24 17 -29 0 -5 6 -4 14 3
8 6 12 19 9 27 -4 11 -2 14 5 9 8 -5 10 -2 5 10 -5 15 -7 15 -15 0 -5 -9 -6
-21 -2 -27 4 -7 1 -10 -7 -7 -8 3 -13 12 -13 21 1 9 -2 14 -7 11 -5 -3 -9 0
-9 5 0 6 7 11 16 11 23 0 11 25 -13 26 -14 1 -20 -5 -19 -20z m36 10 c0 -2 -7
-7 -16 -10 -8 -3 -12 -2 -9 4 6 10 25 14 25 6z"/>
<path d="M5294 5289 c-4 -8 -3 -9 4 -5 7 4 12 2 12 -3 0 -6 -4 -11 -9 -11 -10
0 -8 -67 2 -77 4 -3 1 -13 -6 -21 -10 -13 -9 -14 1 -8 9 6 11 1 8 -18 -3 -14
-8 -31 -11 -38 -4 -7 0 -5 8 4 8 10 16 16 18 14 2 -3 20 9 39 26 l35 30 -32
-18 c-18 -10 -33 -22 -33 -27 0 -4 -5 -5 -12 -1 -8 5 -4 13 11 25 21 17 21 18
1 24 -11 3 -20 11 -20 16 0 12 17 12 25 0 10 -17 41 -8 41 12 0 16 -2 17 -12
3 -19 -26 -28 -18 -10 9 9 14 13 25 9 24 -20 -3 -34 2 -28 11 3 6 -1 7 -10 4
-11 -4 -14 -2 -9 9 7 18 -12 32 -22 16z m43 -47 c15 -9 4 -27 -17 -28 -9 -1
-17 7 -17 17 -2 20 13 24 34 11z"/>
<path d="M5355 5279 c-4 -6 -5 -12 -2 -15 2 -3 7 2 10 11 7 17 1 20 -8 4z"/>
<path d="M5350 5125 c-7 -9 -10 -18 -6 -22 3 -3 6 -1 6 6 0 7 4 10 8 7 5 -3 9
1 9 9 0 19 -2 19 -17 0z"/>
<path d="M5305 5093 c-15 -12 -16 -14 -3 -10 9 3 19 0 22 -9 9 -24 7 -27 -9
-14 -8 7 -15 11 -16 9 0 -2 -2 -15 -3 -28 -2 -19 -1 -21 8 -10 6 8 19 15 29
17 15 3 16 0 5 -17 -6 -11 -14 -19 -17 -19 -21 2 -27 -6 -27 -32 0 -38 8 -38
24 -2 6 16 20 37 31 48 18 20 18 21 -1 33 -10 6 -16 16 -13 21 3 6 1 10 -5 10
-6 0 -8 5 -5 10 9 14 3 12 -20 -7z m6 -106 c-10 -9 -11 -8 -5 6 3 10 9 15 12
12 3 -3 0 -11 -7 -18z"/>
<path d="M5354 5089 c-3 -6 -2 -15 3 -20 5 -5 9 -1 9 11 0 23 -2 24 -12 9z"/>
<path d="M5340 4988 c-8 -13 -18 -31 -22 -41 -4 -10 -11 -16 -16 -13 -4 2 -8
-4 -8 -14 0 -12 6 -17 18 -15 13 3 17 -2 15 -17 -1 -11 5 -23 13 -25 12 -4 12
-3 1 5 -10 7 -11 14 -2 31 7 12 17 18 23 15 7 -4 8 -2 4 5 -6 9 -11 9 -22 0
-17 -14 -19 2 -1 20 10 11 10 13 0 7 -8 -4 -13 -1 -13 8 0 21 5 20 31 -6 12
-13 19 -17 15 -10 -4 7 -2 21 5 30 11 14 11 15 0 5 -19 -16 -45 -5 -30 13 6 8
16 11 22 7 6 -3 7 -1 3 5 -11 17 -19 15 -36 -10z m-17 -63 c-3 -9 -8 -14 -10
-11 -3 3 -2 9 2 15 9 16 15 13 8 -4z"/>
<path d="M5350 4891 c0 -6 4 -13 10 -16 6 -3 7 1 4 9 -7 18 -14 21 -14 7z"/>
<path d="M5376 4887 c3 -10 9 -15 12 -12 3 3 0 11 -7 18 -10 9 -11 8 -5 -6z"/>
<path d="M5294 4860 c0 -16 6 -32 14 -35 13 -5 12 -8 -2 -24 -15 -17 -15 -19
4 -36 23 -21 28 -44 5 -25 -8 7 -15 11 -16 9 0 -2 -2 -15 -3 -28 -2 -19 -1
-21 8 -10 6 8 19 15 29 17 15 3 16 0 5 -17 -6 -11 -14 -19 -17 -19 -21 2 -27
-6 -27 -32 0 -38 8 -38 24 -2 7 16 20 37 30 48 18 18 17 19 -10 42 -15 13 -26
28 -22 33 3 5 17 -3 30 -19 l26 -27 -24 35 c-28 43 -29 52 -3 68 20 12 20 12
0 10 -13 -2 -23 5 -30 20 -13 30 -21 28 -21 -8z m24 -25 c-3 -3 -9 2 -12 12
-6 14 -5 15 5 6 7 -7 10 -15 7 -18z m-7 -168 c-10 -9 -11 -8 -5 6 3 10 9 15
12 12 3 -3 0 -11 -7 -18z"/>
<path d="M5344 4819 c-3 -6 -1 -16 5 -22 6 -6 11 -7 11 -1 0 5 5 2 11 -6 9
-13 10 -13 6 0 -2 8 -10 14 -17 12 -8 -2 -10 3 -7 13 7 17 1 20 -9 4z"/>
<path d="M5376 4758 c3 -5 10 -6 15 -3 13 9 11 12 -6 12 -8 0 -12 -4 -9 -9z"/>
<path d="M5340 4668 c-8 -13 -18 -31 -22 -41 -4 -10 -12 -16 -17 -13 -9 6 -7
-51 3 -61 3 -3 0 -13 -7 -21 -10 -13 -9 -14 1 -8 9 6 11 1 8 -18 -3 -14 -8
-31 -11 -38 -4 -7 0 -5 8 4 8 10 16 16 18 14 2 -3 20 9 39 26 l35 30 -32 -18
c-18 -10 -33 -22 -33 -27 0 -4 -5 -5 -12 -1 -8 5 -4 13 11 25 21 17 21 18 1
24 -11 3 -20 11 -20 16 0 12 17 12 25 0 10 -17 41 -8 41 12 0 16 -2 17 -12 3
-16 -23 -27 -20 -14 3 5 11 10 23 10 28 -1 4 -6 -2 -13 -15 -12 -20 -14 -21
-32 -7 -12 9 -14 13 -5 10 9 -3 21 4 28 16 8 12 9 18 3 14 -6 -3 -11 1 -11 9
0 21 5 20 31 -6 12 -13 19 -17 15 -10 -4 7 -2 21 5 30 11 14 11 15 0 5 -19
-16 -45 -5 -30 13 6 8 16 11 22 7 6 -3 7 -1 3 5 -11 17 -19 15 -36 -10z"/>
<path d="M5350 4485 c-7 -9 -10 -18 -6 -22 3 -3 6 -1 6 6 0 7 4 10 8 7 5 -3 9
1 9 9 0 19 -2 19 -17 0z"/>
<path d="M5305 4453 c-15 -12 -16 -14 -3 -10 9 3 19 0 22 -9 9 -24 7 -27 -9
-14 -8 7 -15 11 -16 9 0 -2 -2 -15 -3 -28 -2 -19 -1 -21 8 -10 6 8 19 15 29
17 15 3 16 0 5 -17 -6 -11 -14 -19 -17 -19 -21 2 -27 -6 -27 -32 0 -38 8 -38
24 -2 6 16 20 37 31 48 18 20 18 21 -1 33 -10 6 -16 16 -13 21 3 6 1 10 -5 10
-6 0 -8 5 -5 10 9 14 3 12 -20 -7z m6 -106 c-10 -9 -11 -8 -5 6 3 10 9 15 12
12 3 -3 0 -11 -7 -18z"/>
<path d="M5354 4449 c-3 -6 -2 -15 3 -20 5 -5 9 -1 9 11 0 23 -2 24 -12 9z"/>
<path d="M5350 4281 c0 -10 19 -25 25 -20 1 2 -3 10 -11 17 -8 7 -14 8 -14 3z"/>
<path d="M6050 4220 c0 -5 5 -10 11 -10 5 0 7 5 4 10 -3 6 -8 10 -11 10 -2 0
-4 -4 -4 -10z"/>
<path d="M6130 4096 c0 -2 8 -10 18 -17 15 -13 16 -12 3 4 -13 16 -21 21 -21
13z"/>
<path d="M6170 4041 c0 -6 4 -13 10 -16 6 -3 7 1 4 9 -7 18 -14 21 -14 7z"/>
<path d="M6256 3921 c8 -8 43 -8 38 0 -2 4 -13 7 -24 6 -10 -1 -17 -3 -14 -6z"/>
<path d="M6366 3818 c3 -5 10 -6 15 -3 13 9 11 12 -6 12 -8 0 -12 -4 -9 -9z"/>
<path d="M6429 3803 c-13 -16 -12 -17 4 -4 9 7 17 15 17 17 0 8 -8 3 -21 -13z"/>
<path d="M6450 3740 c0 -5 5 -10 11 -10 5 0 7 5 4 10 -3 6 -8 10 -11 10 -2 0
-4 -4 -4 -10z"/>
<path d="M6410 3726 c0 -2 7 -7 16 -10 8 -3 12 -2 9 4 -6 10 -25 14 -25 6z"/>
<path d="M6486 3698 c3 -5 10 -6 15 -3 13 9 11 12 -6 12 -8 0 -12 -4 -9 -9z"/>
<path d="M6510 3640 c0 -5 5 -10 10 -10 6 0 10 5 10 10 0 6 -4 10 -10 10 -5 0
-10 -4 -10 -10z"/>
<path d="M6591 3533 c7 -12 15 -20 18 -17 3 2 -3 12 -13 22 -17 16 -18 16 -5
-5z"/>
<path d="M6636 3522 c-3 -5 1 -9 9 -9 8 0 12 4 9 9 -3 4 -7 8 -9 8 -2 0 -6 -4
-9 -8z"/>
<path d="M6595 3489 c-4 -6 -5 -12 -2 -15 2 -3 7 2 10 11 7 17 1 20 -8 4z"/>
<path d="M6646 3481 c-14 -15 -15 -21 -4 -27 7 -4 10 -3 5 1 -4 5 0 17 10 27
9 10 14 18 11 18 -3 0 -13 -9 -22 -19z"/>
<path d="M6599 3448 c15 -21 31 -23 31 -6 0 6 -3 8 -7 5 -3 -4 -13 -1 -22 6
-14 11 -14 10 -2 -5z"/>
<path d="M6590 3426 c0 -4 6 -14 14 -21 12 -12 15 -12 21 2 3 10 3 14 -1 10
-4 -4 -13 -2 -21 4 -7 6 -13 8 -13 5z"/>
<path d="M6637 3403 c-13 -12 -7 -23 11 -22 10 0 12 3 4 6 -6 2 -10 9 -6 14 6
10 0 12 -9 2z"/>
<path d="M6666 3398 c3 -4 9 -8 15 -8 5 0 9 4 9 8 0 5 -7 9 -15 9 -8 0 -12 -4
-9 -9z"/>
<path d="M6705 3400 c-3 -6 1 -7 9 -4 18 7 21 14 7 14 -6 0 -13 -4 -16 -10z"/>
<path d="M6655 3360 c3 -5 8 -10 11 -10 2 0 4 5 4 10 0 6 -5 10 -11 10 -5 0
-7 -4 -4 -10z"/>
<path d="M6806 3318 c3 -5 10 -6 15 -3 13 9 11 12 -6 12 -8 0 -12 -4 -9 -9z"/>
<path d="M6680 3311 c0 -6 4 -13 10 -16 6 -3 7 1 4 9 -7 18 -14 21 -14 7z"/>
<path d="M6674 3263 c4 -7 2 -13 -3 -13 -6 0 -11 -8 -10 -17 0 -11 3 -13 6 -5
2 6 8 10 13 7 11 -7 7 22 -5 32 -4 4 -5 2 -1 -4z"/>
<path d="M6740 3246 c0 -2 8 -10 18 -17 15 -13 16 -12 3 4 -13 16 -21 21 -21
13z"/>
<path d="M6630 3220 c0 -5 5 -10 10 -10 6 0 10 5 10 10 0 6 -4 10 -10 10 -5 0
-10 -4 -10 -10z"/>
<path d="M6654 3198 c-5 -7 -3 -8 6 -3 9 6 12 4 8 -7 -4 -8 0 -15 7 -15 10 0
11 5 4 19 -11 21 -15 22 -25 6z"/>
<path d="M6590 3162 c0 -4 10 -9 22 -9 18 -2 20 0 8 7 -18 12 -30 13 -30 2z"/>
<path d="M6640 3140 c-9 -6 -10 -10 -3 -10 6 0 15 5 18 10 8 12 4 12 -15 0z"/>
<path d="M6590 3129 c0 -5 5 -7 10 -4 6 3 10 8 10 11 0 2 -4 4 -10 4 -5 0 -10
-5 -10 -11z"/>
<path d="M6536 3119 c3 -5 14 -9 25 -9 13 0 18 -4 13 -12 -4 -7 -3 -8 4 -4 18
11 4 31 -23 32 -14 1 -22 -2 -19 -7z"/>
<path d="M6505 3080 c-3 -5 -1 -10 4 -10 6 0 11 5 11 10 0 6 -2 10 -4 10 -3 0
-8 -4 -11 -10z"/>
<path d="M6595 3081 c3 -2 -1 -11 -7 -20 -7 -9 -2 -7 11 4 13 11 25 18 26 15
2 -3 6 -3 9 1 3 3 -6 5 -19 5 -13 0 -22 -2 -20 -5z"/>
<path d="M6480 3050 c-8 -5 -10 -10 -5 -10 6 0 17 5 25 10 8 5 11 10 5 10 -5
0 -17 -5 -25 -10z"/>
<path d="M6629 3043 c-13 -16 -12 -17 4 -4 16 13 21 21 13 21 -2 0 -10 -8 -17
-17z"/>
<path d="M6510 3040 c-13 -8 -12 -10 3 -10 9 0 17 5 17 10 0 12 -1 12 -20 0z"/>
<path d="M6470 3024 c0 -3 7 -12 15 -20 16 -17 18 -14 9 10 -6 15 -24 23 -24
10z"/>
<path d="M6350 3000 c0 -5 5 -10 10 -10 6 0 10 5 10 10 0 6 -4 10 -10 10 -5 0
-10 -4 -10 -10z"/>
<path d="M6575 2980 c3 -5 8 -10 11 -10 2 0 4 5 4 10 0 6 -5 10 -11 10 -5 0
-7 -4 -4 -10z"/>
<path d="M6520 2960 c-9 -6 -10 -10 -3 -10 6 0 15 5 18 10 8 12 4 12 -15 0z"/>
<path d="M6470 2951 c0 -7 -5 -9 -12 -5 -7 5 -8 3 -3 -5 5 -9 10 -10 18 -2 6
6 8 14 4 18 -4 3 -7 1 -7 -6z"/>
<path d="M6400 2920 c-8 -5 -12 -11 -10 -14 3 -2 14 2 24 10 22 15 10 19 -14
4z"/>
<path d="M6414 2898 c-4 -6 -3 -8 4 -4 5 3 12 1 14 -6 3 -8 6 -9 11 -1 4 6 0
13 -8 17 -8 3 -17 0 -21 -6z"/>
<path d="M6490 2899 c0 -5 5 -7 10 -4 6 3 10 8 10 11 0 2 -4 4 -10 4 -5 0 -10
-5 -10 -11z"/>
<path d="M6385 2867 c-14 -11 -15 -16 -5 -22 8 -5 11 -4 7 2 -8 13 20 26 35
16 7 -3 8 -1 4 5 -9 15 -18 15 -41 -1z"/>
<path d="M6320 2838 c0 -5 9 -7 20 -3 15 5 18 3 14 -9 -3 -9 -2 -16 4 -16 6 0
9 8 8 18 -3 17 -46 27 -46 10z"/>
<path d="M6308 2813 c6 -2 10 -9 7 -13 -3 -5 0 -12 6 -16 8 -4 9 -3 5 4 -4 7
-1 12 6 12 9 0 9 3 -2 10 -8 5 -19 9 -25 9 -5 0 -4 -3 3 -6z"/>
<path d="M6376 2802 c-3 -5 1 -9 9 -9 8 0 12 4 9 9 -3 4 -7 8 -9 8 -2 0 -6 -4
-9 -8z"/>
<path d="M6410 2780 c0 -5 5 -10 11 -10 5 0 7 5 4 10 -3 6 -8 10 -11 10 -2 0
-4 -4 -4 -10z"/>
<path d="M6350 2759 c0 -5 5 -7 10 -4 6 3 10 8 10 11 0 2 -4 4 -10 4 -5 0 -10
-5 -10 -11z"/>
<path d="M1356 2752 c-3 -5 1 -9 9 -9 8 0 12 4 9 9 -3 4 -7 8 -9 8 -2 0 -6 -4
-9 -8z"/>
<path d="M6310 2751 c0 -7 -5 -9 -12 -5 -7 5 -8 3 -3 -5 5 -9 10 -10 18 -2 6
6 8 14 4 18 -4 3 -7 1 -7 -6z"/>
<path d="M6282 2724 c10 -10 20 -16 22 -13 3 3 -5 11 -17 18 -21 13 -21 12 -5
-5z"/>
<path d="M870 2720 c0 -5 5 -10 10 -10 6 0 10 5 10 10 0 6 -4 10 -10 10 -5 0
-10 -4 -10 -10z"/>
<path d="M692 2698 c2 -7 -2 -12 -9 -11 -12 2 -12 -23 0 -32 4 -3 5 -2 2 2 -3
3 2 14 11 24 10 11 12 19 4 24 -6 4 -9 1 -8 -7z"/>
<path d="M6330 2699 c0 -5 5 -7 10 -4 6 3 10 8 10 11 0 2 -4 4 -10 4 -5 0 -10
-5 -10 -11z"/>
<path d="M6246 2683 c-4 -9 -3 -20 1 -24 4 -4 9 3 9 17 2 28 -1 31 -10 7z"/>
<path d="M765 2680 c-3 -5 -2 -10 4 -10 5 0 13 5 16 10 3 6 2 10 -4 10 -5 0
-13 -4 -16 -10z"/>
<path d="M5530 2680 c0 -5 5 -10 11 -10 5 0 7 5 4 10 -3 6 -8 10 -11 10 -2 0
-4 -4 -4 -10z"/>
<path d="M6200 2675 c0 -8 2 -15 4 -15 2 0 6 7 10 15 3 8 1 15 -4 15 -6 0 -10
-7 -10 -15z"/>
<path d="M873 2655 c0 -14 3 -27 7 -30 4 -3 8 7 8 20 0 14 -4 27 -8 30 -4 3
-7 -7 -7 -20z"/>
<path d="M755 2650 c-3 -5 -2 -18 4 -27 7 -14 9 -12 8 10 -2 30 -3 31 -12 17z"/>
<path d="M659 2648 c-5 -18 -6 -38 -1 -34 7 8 12 36 6 36 -2 0 -4 -1 -5 -2z"/>
<path d="M1502 2636 c10 -7 15 -16 11 -19 -3 -4 -1 -7 5 -7 7 0 12 4 12 8 0
12 -22 32 -34 32 -6 0 -3 -7 6 -14z"/>
<path d="M6180 2645 c0 -8 29 -12 39 -5 9 5 4 8 -13 8 -14 0 -26 -2 -26 -3z"/>
<path d="M813 2626 c11 -8 26 -12 35 -8 15 5 16 4 2 -14 -14 -18 -14 -18 2 -5
19 14 14 35 -5 28 -7 -2 -21 0 -32 5 -19 9 -19 8 -2 -6z"/>
<path d="M935 2620 c3 -5 14 -10 23 -10 15 0 15 2 2 10 -20 13 -33 13 -25 0z"/>
<path d="M1009 2608 c-7 -12 -7 -18 -1 -14 6 3 13 0 16 -6 3 -7 3 -3 0 9 -4
18 -2 22 10 17 9 -3 16 -4 16 -1 0 17 -31 13 -41 -5z"/>
<path d="M1487 2609 c4 -13 8 -18 11 -10 2 7 -1 18 -6 23 -8 8 -9 4 -5 -13z"/>
<path d="M6175 2619 c-4 -6 -4 -13 -1 -16 3 -4 6 -1 6 6 0 7 5 9 12 5 7 -4 8
-3 4 4 -9 15 -13 15 -21 1z"/>
<path d="M6230 2615 c5 -7 6 -16 2 -21 -4 -5 -3 -5 2 -1 15 12 15 34 0 34 -9
0 -11 -4 -4 -12z"/>
<path d="M977 2605 c-4 -8 -3 -16 1 -19 4 -3 9 4 9 15 2 23 -3 25 -10 4z"/>
<path d="M1061 2604 c0 -11 3 -14 6 -6 3 7 2 16 -1 19 -3 4 -6 -2 -5 -13z"/>
<path d="M6122 2594 c-19 -19 -22 -26 -12 -41 9 -15 10 -15 4 7 -3 14 -3 22 1
18 5 -5 15 1 23 13 20 28 12 30 -16 3z"/>
<path d="M775 2601 c-3 -5 -2 -12 3 -15 5 -3 9 1 9 9 0 17 -3 19 -12 6z"/>
<path d="M876 2594 c-24 -24 -19 -30 7 -8 12 10 24 20 26 21 2 2 -1 3 -7 3 -6
0 -18 -7 -26 -16z"/>
<path d="M1080 2596 c0 -8 4 -17 9 -20 5 -4 7 3 4 14 -6 23 -13 26 -13 6z"/>
<path d="M1150 2602 c0 -4 10 -9 22 -9 18 -2 20 0 8 7 -18 12 -30 13 -30 2z"/>
<path d="M1380 2600 c-12 -7 -10 -9 8 -7 12 0 22 5 22 9 0 11 -12 10 -30 -2z"/>
<path d="M1468 2592 c-3 -11 0 -19 7 -19 7 0 10 8 7 19 -2 10 -6 18 -7 18 -1
0 -5 -8 -7 -18z"/>
<path d="M5460 2600 c-8 -5 -10 -10 -5 -10 6 0 17 5 25 10 8 5 11 10 5 10 -5
0 -17 -5 -25 -10z"/>
<path d="M5585 2599 c-4 -6 -4 -13 -1 -16 3 -4 6 -1 6 6 0 8 6 11 16 7 8 -3
12 -2 9 4 -8 13 -22 13 -30 -1z"/>
<path d="M1114 2585 c1 -8 6 -18 11 -22 4 -4 5 -3 2 4 -4 6 -2 13 5 15 8 3 6
6 -4 10 -10 4 -15 2 -14 -7z"/>
<path d="M1346 2583 c-6 -14 -5 -15 5 -6 7 7 10 15 7 18 -3 3 -9 -2 -12 -12z"/>
<path d="M827 2579 c7 -7 15 -10 18 -7 3 3 -2 9 -12 12 -14 6 -15 5 -6 -5z"/>
<path d="M907 2572 c3 -7 9 -10 12 -5 3 4 10 11 15 15 4 4 -1 6 -12 5 -12 -1
-18 -6 -15 -15z"/>
<path d="M1196 2582 c-3 -5 1 -9 9 -9 8 0 12 4 9 9 -3 4 -7 8 -9 8 -2 0 -6 -4
-9 -8z"/>
<path d="M1250 2580 c0 -5 5 -10 11 -10 5 0 7 5 4 10 -3 6 -8 10 -11 10 -2 0
-4 -4 -4 -10z"/>
<path d="M1428 2583 c6 -2 9 -10 6 -15 -4 -7 -2 -8 5 -4 13 9 5 26 -12 25 -9
0 -8 -2 1 -6z"/>
<path d="M5476 2574 c-22 -22 -20 -31 2 -11 10 10 22 14 27 10 4 -5 5 -2 1 5
-9 15 -11 15 -30 -4z"/>
<path d="M1302 2564 c10 -10 20 -16 22 -13 3 3 -5 11 -17 18 -21 13 -21 12 -5
-5z"/>
<path d="M5611 2564 c0 -11 3 -14 6 -6 3 7 2 16 -1 19 -3 4 -6 -2 -5 -13z"/>
<path d="M6175 2570 c-3 -5 -11 -8 -18 -6 -7 1 -9 1 -4 -1 4 -3 5 -9 2 -13 -3
-5 0 -12 7 -16 7 -4 10 -3 5 1 -4 5 0 17 10 27 9 10 13 18 10 18 -3 0 -8 -4
-12 -10z"/>
<path d="M893 2551 c0 -11 5 -18 9 -15 4 3 5 11 1 19 -7 21 -12 19 -10 -4z"/>
<path d="M1006 2558 c3 -5 10 -6 15 -3 13 9 11 12 -6 12 -8 0 -12 -4 -9 -9z"/>
<path d="M5420 2560 c-12 -7 -10 -9 7 -7 12 0 19 5 17 9 -6 10 -6 10 -24 -2z"/>
<path d="M5550 2566 c0 -2 9 -6 20 -9 11 -3 18 -1 14 4 -5 9 -34 13 -34 5z"/>
<path d="M6213 2545 c0 -8 4 -12 9 -9 5 3 6 10 3 15 -9 13 -12 11 -12 -6z"/>
<path d="M815 2540 c3 -5 8 -10 11 -10 2 0 4 5 4 10 0 6 -5 10 -11 10 -5 0 -7
-4 -4 -10z"/>
<path d="M5305 2531 c-3 -5 -1 -12 4 -15 5 -3 11 1 15 9 6 16 -9 21 -19 6z"/>
<path d="M5836 2525 c10 -8 23 -15 28 -15 6 0 1 7 -10 15 -10 8 -23 15 -28 15
-6 0 -1 -7 10 -15z"/>
<path d="M6082 2509 c-15 -24 -15 -29 0 -29 6 0 8 3 5 7 -11 10 13 32 29 26 8
-3 14 -1 14 4 0 17 -36 11 -48 -8z"/>
<path d="M1695 2509 c-4 -6 -5 -12 -2 -15 2 -3 7 2 10 11 7 17 1 20 -8 4z"/>
<path d="M5830 2503 c7 -3 5 -13 -7 -26 -12 -15 -13 -18 -2 -9 9 6 18 9 22 6
3 -3 4 2 3 12 -2 10 -8 19 -15 20 -7 2 -7 1 -1 -3z"/>
<path d="M6146 2498 c3 -5 10 -6 15 -3 13 9 11 12 -6 12 -8 0 -12 -4 -9 -9z"/>
<path d="M5866 2485 c-9 -26 -7 -32 5 -12 6 10 9 21 6 23 -2 3 -7 -2 -11 -11z"/>
<path d="M5380 2480 c0 -5 7 -7 15 -4 8 4 15 8 15 10 0 2 -7 4 -15 4 -8 0 -15
-4 -15 -10z"/>
<path d="M6040 2475 c-7 -9 -11 -17 -9 -20 3 -2 10 5 17 15 14 24 10 26 -8 5z"/>
<path d="M5876 2455 c-9 -26 -7 -32 5 -12 6 10 9 21 6 23 -2 3 -7 -2 -11 -11z"/>
<path d="M6059 2468 c-9 -30 -6 -37 11 -28 11 6 22 16 26 23 5 9 4 9 -7 0 -16
-15 -33 -17 -24 -3 3 6 4 10 1 10 -3 0 -6 -1 -7 -2z"/>
<path d="M5910 2450 c-9 -6 -10 -10 -3 -10 6 0 15 5 18 10 8 12 4 12 -15 0z"/>
<path d="M5939 2448 c-1 -7 -1 -17 0 -22 1 -5 -5 -6 -14 -2 -10 3 -14 2 -10
-5 10 -16 28 -5 32 19 1 12 1 22 -2 22 -3 0 -6 -6 -6 -12z"/>
<path d="M5966 2445 c-3 -8 -1 -15 4 -15 6 0 10 7 10 15 0 8 -2 15 -4 15 -2 0
-6 -7 -10 -15z"/>
<path d="M5994 2433 c-1 -13 -1 -23 0 -21 1 2 7 10 14 19 10 13 10 18 0 22 -8
3 -14 -5 -14 -20z"/>
<path d="M5390 2441 c0 -6 4 -13 10 -16 6 -3 7 1 4 9 -7 18 -14 21 -14 7z"/>
<path d="M6014 2419 c-12 -20 12 -31 27 -12 13 17 13 17 -5 3 -18 -14 -19 -13
-13 3 7 19 2 23 -9 6z"/>
<path d="M6066 2421 c-3 -4 4 -7 14 -6 27 2 33 10 10 12 -11 1 -22 -2 -24 -6z"/>
<path d="M5853 2407 c0 -8 6 -14 14 -14 9 0 10 4 2 14 -6 7 -12 13 -14 13 -1
0 -2 -6 -2 -13z"/>
<path d="M5393 2395 c0 -8 4 -12 9 -9 5 3 6 10 3 15 -9 13 -12 11 -12 -6z"/>
<path d="M5890 2400 c0 -5 5 -10 10 -10 6 0 10 5 10 10 0 6 -4 10 -10 10 -5 0
-10 -4 -10 -10z"/>
<path d="M5950 2406 c0 -2 7 -6 15 -10 8 -3 15 -1 15 4 0 6 -7 10 -15 10 -8 0
-15 -2 -15 -4z"/>
<path d="M5310 2360 c0 -5 6 -10 13 -10 6 -1 2 -6 -11 -13 -17 -10 -20 -15
-10 -25 9 -9 9 -12 -2 -12 -9 0 -6 -6 8 -16 12 -8 22 -20 22 -26 0 -7 -6 -6
-15 2 -8 7 -15 11 -16 9 0 -2 -2 -15 -3 -28 -2 -19 -1 -21 8 -10 16 21 40 23
32 4 -3 -9 -6 -19 -6 -21 0 -3 -4 -3 -8 0 -4 2 -14 0 -22 -6 -13 -8 -12 -9 2
-5 9 3 19 -1 22 -9 9 -24 7 -27 -9 -14 -8 7 -15 11 -16 9 0 -2 -2 -15 -3 -28
-2 -19 -1 -21 8 -10 6 8 19 15 29 17 15 3 16 0 5 -17 -6 -11 -14 -19 -17 -19
-21 2 -27 -6 -27 -32 0 -38 8 -38 24 -2 7 16 20 37 30 48 18 18 18 19 -1 34
-17 14 -18 19 -6 38 11 18 11 26 1 42 -16 27 -15 35 3 20 10 -9 15 -9 15 -1 0
6 -6 11 -12 11 -8 0 -5 7 6 15 11 8 15 15 9 15 -6 0 -16 -7 -23 -15 -19 -23
-29 -18 -17 9 7 13 15 22 20 19 5 -3 3 4 -5 16 -14 22 -28 28 -28 11z m1 -253
c-10 -9 -11 -8 -5 6 3 10 9 15 12 12 3 -3 0 -11 -7 -18z"/>
<path d="M5913 2357 c-3 -6 -1 -7 5 -3 5 3 13 0 15 -6 4 -10 6 -9 6 1 1 11 6
10 24 -5 22 -19 22 -19 4 2 -18 22 -44 27 -54 11z"/>
<path d="M5994 2355 c3 -23 12 -26 13 -5 1 11 -2 20 -7 20 -4 0 -7 -7 -6 -15z"/>
<path d="M5856 2341 c8 -8 43 -8 38 0 -2 4 -13 7 -24 6 -10 -1 -17 -3 -14 -6z"/>
<path d="M5936 2322 c-3 -5 1 -9 9 -9 8 0 12 4 9 9 -3 4 -7 8 -9 8 -2 0 -6 -4
-9 -8z"/>
<path d="M5856 2293 c-6 -14 -5 -15 5 -6 7 7 10 15 7 18 -3 3 -9 -2 -12 -12z"/>
<path d="M5940 2260 c8 -5 20 -10 25 -10 6 0 3 5 -5 10 -8 5 -19 10 -25 10 -5
0 -3 -5 5 -10z"/>
<path d="M5366 2237 c3 -10 9 -15 12 -12 3 3 0 11 -7 18 -10 9 -11 8 -5 -6z"/>
<path d="M5350 2201 c0 -6 4 -13 10 -16 6 -3 7 1 4 9 -7 18 -14 21 -14 7z"/>
<path d="M5376 2198 c3 -5 10 -6 15 -3 13 9 11 12 -6 12 -8 0 -12 -4 -9 -9z"/>
<path d="M5340 2108 c-8 -13 -18 -31 -22 -41 -4 -10 -12 -16 -17 -13 -9 6 -7
-51 3 -61 3 -3 0 -13 -7 -21 -10 -13 -9 -14 1 -8 9 6 11 1 8 -18 -3 -14 -8
-31 -11 -38 -4 -7 0 -5 8 4 8 10 16 16 18 14 2 -3 20 9 39 26 l35 30 -32 -18
c-18 -10 -33 -22 -33 -27 0 -4 -5 -5 -12 -1 -8 5 -4 13 11 25 21 17 21 18 1
24 -11 3 -20 11 -20 16 0 12 17 12 25 0 10 -17 41 -8 41 12 0 16 -2 17 -12 3
-16 -23 -27 -20 -14 3 5 11 10 23 10 28 -1 4 -6 -2 -13 -15 -12 -20 -14 -21
-32 -7 -12 9 -14 13 -5 10 9 -3 21 4 28 16 8 12 9 18 3 14 -6 -3 -11 1 -11 9
0 21 5 20 31 -6 12 -13 19 -17 15 -10 -4 7 -2 21 5 30 11 14 11 15 0 5 -19
-16 -45 -5 -30 13 6 8 16 11 22 7 6 -3 7 -1 3 5 -11 17 -19 15 -36 -10z"/>
<path d="M5350 1925 c-7 -9 -10 -18 -6 -22 3 -3 6 -1 6 6 0 7 4 10 8 7 5 -3 9
1 9 9 0 19 -2 19 -17 0z"/>
<path d="M5310 1897 c-9 -7 -15 -30 -16 -58 -1 -46 0 -47 17 -25 21 24 24 18
8 -18 -7 -14 -17 -22 -23 -19 -6 4 -5 -1 3 -10 7 -9 9 -17 4 -17 -5 0 -10 -7
-10 -15 0 -8 3 -13 5 -10 7 7 32 -15 32 -27 0 -6 -7 -5 -15 2 -8 7 -15 11 -16
9 0 -2 -2 -15 -3 -28 -2 -19 -1 -21 8 -10 6 8 19 15 29 17 15 3 16 0 5 -17 -6
-11 -14 -19 -17 -19 -21 2 -27 -6 -27 -32 0 -34 11 -40 19 -10 3 13 11 18 20
14 8 -3 18 0 22 5 3 6 12 8 18 5 7 -4 6 -1 -2 7 -10 11 -15 11 -18 2 -5 -14
-23 -18 -23 -5 0 5 8 17 19 28 18 20 18 21 -1 33 -11 7 -17 15 -14 18 3 3 14
0 23 -8 16 -13 17 -12 4 4 -7 9 -20 16 -29 15 -8 -2 -17 2 -19 8 -5 13 28 15
45 1 8 -6 12 -6 12 2 0 6 -5 11 -11 11 -5 0 -7 4 -4 10 3 5 0 7 -8 4 -8 -3
-18 0 -23 7 -4 7 -3 10 4 5 6 -3 14 -1 18 5 4 8 3 9 -4 5 -15 -9 -15 9 -2 35
12 22 -2 60 -14 40 -4 -6 -13 -11 -19 -11 -7 1 -1 10 12 20 13 11 18 20 12 20
-7 0 -9 5 -6 10 8 13 4 12 -15 -3z m30 -59 c0 -6 -3 -8 -7 -5 -3 4 -13 1 -22
-6 -14 -11 -14 -10 -2 6 15 20 31 22 31 5z m-29 -211 c-10 -9 -11 -8 -5 6 3
10 9 15 12 12 3 -3 0 -11 -7 -18z"/>
<path d="M5353 1885 c-3 -9 -3 -18 -1 -21 3 -3 8 4 11 16 6 23 -1 27 -10 5z"/>
<path d="M5354 1819 c-3 -6 -2 -15 4 -21 6 -6 12 -6 17 3 6 8 4 10 -5 4 -10
-6 -12 -4 -7 8 7 19 2 23 -9 6z"/>
<path d="M5376 1773 c-6 -14 -5 -15 5 -6 7 7 10 15 7 18 -3 3 -9 -2 -12 -12z"/>
<path d="M5375 1610 c-3 -5 -13 -6 -22 -3 -12 5 -12 2 3 -15 19 -23 30 -29 19
-12 -4 6 -1 17 5 25 7 8 10 15 7 15 -3 0 -8 -4 -12 -10z"/>
<path d="M5318 1591 c-4 -12 -11 -21 -15 -18 -5 3 -9 -5 -9 -18 0 -14 6 -27
12 -29 8 -3 11 1 8 9 -4 10 2 13 28 10 18 -2 27 -1 20 2 -6 2 -10 9 -7 14 4 5
-2 6 -12 2 -16 -6 -17 -5 -3 12 8 10 10 16 3 12 -7 -4 -13 0 -15 10 -3 14 -5
13 -10 -6z m9 -24 c0 -8 -6 -14 -14 -14 -9 0 -10 4 -2 14 6 7 12 13 14 13 1 0
2 -6 2 -13z"/>
<path d="M5376 1533 c-6 -14 -5 -15 5 -6 7 7 10 15 7 18 -3 3 -9 -2 -12 -12z"/>
<path d="M5350 1500 c0 -5 5 -10 10 -10 6 0 10 5 10 10 0 6 -4 10 -10 10 -5 0
-10 -4 -10 -10z"/>
<path d="M5340 1410 c0 -5 0 -13 1 -17 0 -4 -8 -11 -18 -15 -17 -7 -17 -8 1
-5 16 2 36 47 21 47 -3 0 -5 -4 -5 -10z"/>
<path d="M5350 1281 c0 -6 4 -13 10 -16 6 -3 7 1 4 9 -7 18 -14 21 -14 7z"/>
<path d="M1867 1199 c7 -7 15 -10 18 -7 3 3 -2 9 -12 12 -14 6 -15 5 -6 -5z"/>
<path d="M5278 1203 c7 -3 16 -2 19 1 4 3 -2 6 -13 5 -11 0 -14 -3 -6 -6z"/>
<path d="M5255 1180 c-4 -6 1 -7 11 -3 13 5 15 3 9 -7 -5 -9 -4 -11 4 -6 6 4
9 12 6 17 -8 12 -22 12 -30 -1z"/>
<path d="M5216 1115 c-9 -26 -7 -32 5 -12 6 10 9 21 6 23 -2 3 -7 -2 -11 -11z"/>
<path d="M1990 1098 c0 -4 4 -8 9 -8 6 0 12 4 15 8 3 5 -1 9 -9 9 -8 0 -15 -4
-15 -9z"/>
<path d="M2083 1093 c-18 -7 -16 -30 3 -37 14 -5 15 -4 5 8 -10 11 -8 17 6 25
18 11 8 14 -14 4z"/>
<path d="M2504 1078 c11 -18 31 -28 51 -27 5 0 13 -8 17 -18 6 -13 7 -10 3 9
-5 25 -3 25 19 15 13 -7 22 -15 20 -19 -3 -5 0 -8 6 -8 7 0 9 8 5 19 -4 15 0
18 22 17 19 -1 28 4 28 14 0 10 -10 15 -31 16 -21 0 -31 -4 -30 -14 1 -8 -5
-17 -12 -19 -6 -3 -10 1 -9 9 2 7 2 9 -1 4 -2 -4 -8 -2 -13 5 -4 8 -26 14 -48
15 -35 0 -38 -1 -27 -18z m46 -1 c0 -7 4 -6 10 3 5 8 10 11 10 5 0 -5 -4 -16
-9 -23 -6 -10 -12 -9 -30 5 -23 18 -23 19 -2 20 12 1 21 -4 21 -10z m120 3 c0
-5 -2 -10 -4 -10 -3 0 -8 5 -11 10 -3 6 -1 10 4 10 6 0 11 -4 11 -10z"/>
<path d="M3240 1080 c6 -11 19 -16 35 -15 21 3 25 0 20 -16 -4 -11 -2 -19 5
-19 6 0 9 3 6 8 -2 4 7 12 20 19 22 10 24 10 19 -15 -5 -23 -4 -24 4 -7 7 14
10 15 10 5 1 -12 3 -12 9 -2 5 7 17 10 28 6 16 -5 16 -4 4 5 -10 7 -11 11 -2
11 6 0 12 7 12 15 0 8 5 15 11 15 6 0 8 -9 4 -20 -4 -14 -2 -20 8 -20 9 0 14
9 13 23 -1 20 -6 23 -38 23 -31 0 -35 -3 -27 -17 6 -12 4 -19 -7 -23 -12 -4
-15 -2 -11 9 8 20 -8 28 -23 10 -15 -18 -31 -20 -26 -2 1 6 1 8 -2 3 -2 -4 -8
-2 -13 5 -4 8 -22 14 -38 15 -26 1 -29 -2 -21 -16z m30 6 c0 -3 -4 -8 -10 -11
-5 -3 -10 -1 -10 4 0 6 5 11 10 11 6 0 10 -2 10 -4z"/>
<path d="M4104 1078 c11 -18 31 -28 51 -27 5 0 13 -8 17 -18 6 -13 7 -10 3 9
-5 25 -3 25 19 15 13 -7 22 -15 20 -19 -3 -5 0 -8 6 -8 7 0 9 8 5 19 -4 15 0
18 22 17 19 -1 28 4 28 14 0 10 -10 15 -31 16 -21 0 -31 -4 -30 -14 1 -8 -5
-17 -12 -19 -6 -3 -10 1 -9 9 2 7 2 9 -1 4 -2 -4 -8 -2 -13 5 -4 8 -26 14 -48
15 -35 0 -38 -1 -27 -18z m46 -1 c0 -7 4 -6 10 3 5 8 10 11 10 5 0 -5 -4 -16
-9 -23 -6 -10 -12 -9 -30 5 -23 18 -23 19 -2 20 12 1 21 -4 21 -10z m120 3 c0
-5 -2 -10 -4 -10 -3 0 -8 5 -11 10 -3 6 -1 10 4 10 6 0 11 -4 11 -10z"/>
<path d="M4743 1078 c6 -9 22 -21 36 -27 22 -9 23 -9 10 1 -21 17 -24 29 -9
38 7 5 0 7 -17 7 -26 -1 -29 -4 -20 -19z"/>
<path d="M2160 1081 c0 -7 -4 -9 -10 -6 -6 4 -7 -1 -3 -11 6 -15 7 -15 15 1 6
9 7 19 4 22 -3 4 -6 1 -6 -6z"/>
<path d="M2236 1064 c-15 -14 -26 -28 -22 -31 3 -4 6 -3 6 2 0 4 8 1 18 -6 14
-11 15 -11 5 1 -13 14 -1 40 19 40 7 0 7 -5 0 -13 -8 -9 -8 -17 0 -27 8 -13 9
-12 5 2 -9 26 6 31 19 6 l13 -23 -3 25 c-1 14 -6 26 -10 27 -5 1 -12 6 -15 11
-3 6 -18 0 -35 -14z"/>
<path d="M5132 1085 c3 -3 16 -8 28 -10 12 -2 20 -1 16 2 -4 4 -16 8 -28 10
-12 2 -19 1 -16 -2z"/>
<path d="M5070 1076 c0 -3 9 -10 20 -16 11 -6 20 -8 20 -6 0 3 -9 10 -20 16
-11 6 -20 8 -20 6z"/>
<path d="M2116 1062 c-3 -5 1 -9 9 -9 8 0 12 4 9 9 -3 4 -7 8 -9 8 -2 0 -6 -4
-9 -8z"/>
<path d="M2171 1044 c0 -11 3 -14 6 -6 3 7 2 16 -1 19 -3 4 -6 -2 -5 -13z"/>
<path d="M2510 1040 c0 -6 7 -10 15 -10 8 0 15 2 15 4 0 2 -7 6 -15 10 -8 3
-15 1 -15 -4z"/>
<path d="M4110 1040 c0 -6 7 -10 15 -10 8 0 15 2 15 4 0 2 -7 6 -15 10 -8 3
-15 1 -15 -4z"/>
<path d="M4750 1040 c0 -6 7 -10 15 -10 8 0 15 2 15 4 0 2 -7 6 -15 10 -8 3
-15 1 -15 -4z"/>
<path d="M4873 1043 c4 -3 0 -11 -8 -17 -13 -9 -11 -11 9 -11 20 0 22 3 15 18
-5 9 -13 17 -16 17 -3 0 -3 -3 0 -7z"/>
<path d="M2381 1037 c2 -1 12 -9 22 -16 15 -12 17 -12 11 3 -3 9 -13 16 -22
16 -8 0 -13 -1 -11 -3z"/>
<path d="M3800 1031 c0 -6 4 -13 10 -16 6 -3 7 1 4 9 -7 18 -14 21 -14 7z"/>
<path d="M3988 1033 c6 -2 10 -8 8 -12 -3 -4 1 -8 8 -8 8 0 12 6 9 14 -3 7
-13 13 -22 12 -10 0 -11 -2 -3 -6z"/>
<path d="M4628 1033 c6 -2 10 -8 8 -12 -3 -4 1 -8 8 -8 8 0 12 6 9 14 -3 7
-13 13 -22 12 -10 0 -11 -2 -3 -6z"/>
<path d="M2550 1023 c0 -6 8 -17 18 -24 16 -13 16 -13 2 6 -8 11 -16 22 -17
24 -2 2 -3 0 -3 -6z"/>
<path d="M2775 1021 c-3 -5 -2 -12 3 -15 5 -3 9 1 9 9 0 17 -3 19 -12 6z"/>
<path d="M2914 1019 c-3 -6 -2 -15 4 -21 6 -6 12 -6 17 3 6 8 4 10 -5 4 -10
-6 -12 -4 -7 8 7 19 2 23 -9 6z"/>
<path d="M2976 1021 c-3 -5 1 -14 8 -20 10 -9 16 -9 21 -1 4 6 1 9 -7 8 -7 -2
-12 3 -10 10 2 14 -4 16 -12 3z"/>
<path d="M3000 1026 c0 -2 7 -7 16 -10 8 -3 12 -2 9 4 -6 10 -25 14 -25 6z"/>
<path d="M3055 1020 c-3 -6 1 -7 9 -4 18 7 21 14 7 14 -6 0 -13 -4 -16 -10z"/>
<path d="M3093 1018 c1 -7 -4 -12 -11 -10 -8 1 -11 -2 -7 -8 5 -8 11 -8 21 1
7 6 11 15 8 20 -8 13 -14 11 -11 -3z"/>
<path d="M3136 1021 c-3 -5 1 -14 8 -20 10 -9 16 -9 21 -1 4 6 1 9 -7 8 -7 -2
-12 3 -10 10 2 14 -4 16 -12 3z"/>
<path d="M3160 1026 c0 -2 7 -7 16 -10 8 -3 12 -2 9 4 -6 10 -25 14 -25 6z"/>
<path d="M3316 1022 c-2 -4 -1 -14 4 -22 7 -11 9 -9 7 8 -1 24 -3 26 -11 14z"/>
<path d="M3375 1021 c-3 -5 -2 -12 3 -15 5 -3 9 1 9 9 0 17 -3 19 -12 6z"/>
<path d="M3400 1026 c0 -2 7 -7 16 -10 8 -3 12 -2 9 4 -6 10 -25 14 -25 6z"/>
<path d="M3636 1022 c-2 -4 -1 -14 4 -22 7 -11 9 -9 7 8 -1 24 -3 26 -11 14z"/>
<path d="M3710 1020 c0 -5 5 -10 11 -10 5 0 7 5 4 10 -3 6 -8 10 -11 10 -2 0
-4 -4 -4 -10z"/>
<path d="M3895 1019 c-4 -6 -5 -12 -2 -15 2 -3 7 2 10 11 7 17 1 20 -8 4z"/>
<path d="M4150 1023 c0 -6 8 -17 18 -24 16 -13 16 -13 2 6 -8 11 -16 22 -17
24 -2 2 -3 0 -3 -6z"/>
<path d="M4375 1021 c-3 -5 -2 -12 3 -15 5 -3 9 1 9 9 0 17 -3 19 -12 6z"/>
<path d="M4535 1019 c-4 -6 -5 -12 -2 -15 2 -3 7 2 10 11 7 17 1 20 -8 4z"/>
<path d="M4790 1020 c0 -5 5 -10 10 -10 6 0 10 5 10 10 0 6 -4 10 -10 10 -5 0
-10 -4 -10 -10z"/>
<path d="M5026 1018 c3 -5 10 -6 15 -3 13 9 11 12 -6 12 -8 0 -12 -4 -9 -9z"/>
<path d="M3753 1005 c0 -8 4 -12 9 -9 5 3 6 10 3 15 -9 13 -12 11 -12 -6z"/>
<path d="M2310 1001 c0 -6 4 -13 10 -16 6 -3 7 1 4 9 -7 18 -14 21 -14 7z"/>
<path d="M3340 1006 c0 -2 8 -10 18 -17 15 -13 16 -12 3 4 -13 16 -21 21 -21
13z"/>
<path d="M3664 1002 c4 -3 14 -7 22 -8 9 -1 13 0 10 4 -4 3 -14 7 -22 8 -9 1
-13 0 -10 -4z"/>
</g>
</svg>
