<?xml version="1.0" standalone="no"?>
<!DOCTYPE svg PUBLIC "-//W3C//DTD SVG 20010904//EN"
 "http://www.w3.org/TR/2001/REC-SVG-20010904/DTD/svg10.dtd">
<svg version="1.0" xmlns="http://www.w3.org/2000/svg"
 width="700.000000pt" height="700.000000pt" viewBox="0 0 700.000000 700.000000"
 preserveAspectRatio="xMidYMid meet">
<metadata>
Created by potrace 1.14, written by Peter Selinger 2001-2017
</metadata>
<g transform="translate(0.000000,700.000000) scale(0.100000,-0.100000)"
fill="#000000" stroke="none">
<path d="M3139 6863 c-9 -16 -59 -102 -111 -193 -53 -91 -221 -381 -373 -645
-153 -264 -313 -541 -356 -615 -43 -75 -81 -143 -85 -153 -6 -16 11 -17 230
-17 l236 0 2 -940 3 -939 185 100 c251 137 437 226 613 295 l147 58 0 713 0
713 241 0 c214 0 240 2 235 16 -3 8 -108 191 -232 407 -380 657 -624 1078
-667 1154 -23 40 -44 73 -47 73 -3 0 -13 -12 -21 -27z"/>
<path d="M770 6134 c-192 -51 -330 -208 -355 -404 -8 -72 -34 -541 -45 -845
-37 -985 115 -1681 465 -2130 248 -318 598 -517 1040 -592 140 -23 530 -25
640 -2 l70 14 0 50 c0 28 -6 122 -13 210 -7 88 -13 285 -13 438 -1 152 -4 277
-8 277 -4 0 -41 -11 -82 -25 -150 -51 -379 -55 -554 -9 -328 86 -514 400 -577
979 -19 175 -16 951 5 1320 19 329 15 375 -44 486 -37 68 -133 163 -200 196
-104 51 -224 65 -329 37z"/>
<path d="M3496 3625 c-141 -57 -404 -188 -631 -312 l-180 -99 2 -318 c1 -283
13 -542 30 -648 l5 -37 102 35 c116 41 344 150 526 254 69 39 159 89 200 112
l75 40 0 509 c0 333 -3 509 -10 509 -5 -1 -59 -21 -119 -45z"/>
</g>
</svg>
